<svg width="88" height="88" viewBox="0 0 88 88" fill="none" xmlns="http://www.w3.org/2000/svg">
<g filter="url(#filter0_d_23_525)">
<circle cx="44" cy="40" r="40" fill="#002459"/>
</g>
<path d="M44 22C40.69 22 38 24.69 38 28C38 31.31 40.69 34 44 34C47.31 34 50 31.31 50 28C50 24.69 47.31 22 44 22ZM44 36C39.59 36 36 32.41 36 28C36 23.59 39.59 20 44 20C48.41 20 52 23.59 52 28C52 32.41 48.41 36 44 36Z" fill="white"/>
<path d="M33 60C32.45 60 32 59.55 32 59V51C32 50.45 32.45 50 33 50C33.55 50 34 50.45 34 51V59C34 59.55 33.55 60 33 60Z" fill="white"/>
<path d="M55 60C54.45 60 54 59.55 54 59V51C54 50.45 54.45 50 55 50C55.55 50 56 50.45 56 51V59C56 59.55 55.55 60 55 60Z" fill="white"/>
<path d="M61 60C60.45 60 60 59.55 60 59V49C60 44.04 55.96 40 51 40H37C32.04 40 28 44.04 28 49V59C28 59.55 27.55 60 27 60C26.45 60 26 59.55 26 59V49C26 42.93 30.93 38 37 38H51C57.07 38 62 42.93 62 49V59C62 59.55 61.55 60 61 60Z" fill="white"/>
<defs>
<filter id="filter0_d_23_525" x="0" y="0" width="88" height="88" filterUnits="userSpaceOnUse" color-interpolation-filters="sRGB">
<feFlood flood-opacity="0" result="BackgroundImageFix"/>
<feColorMatrix in="SourceAlpha" type="matrix" values="0 0 0 0 0 0 0 0 0 0 0 0 0 0 0 0 0 0 127 0" result="hardAlpha"/>
<feOffset dy="4"/>
<feGaussianBlur stdDeviation="2"/>
<feComposite in2="hardAlpha" operator="out"/>
<feColorMatrix type="matrix" values="0 0 0 0 0 0 0 0 0 0 0 0 0 0 0 0 0 0 0.25 0"/>
<feBlend mode="normal" in2="BackgroundImageFix" result="effect1_dropShadow_23_525"/>
<feBlend mode="normal" in="SourceGraphic" in2="effect1_dropShadow_23_525" result="shape"/>
</filter>
</defs>
</svg>
