<svg width="88" height="88" viewBox="0 0 88 88" fill="none" xmlns="http://www.w3.org/2000/svg">
<rect width="88" height="88" fill="#00112C"/>
<path d="M50.6078 34.7921C51.3226 36.5743 51.68 38.5644 51.68 40.703C51.68 41.8911 51.5906 43.1089 51.4119 44.3861C51.2332 45.6634 51.0545 46.9109 50.846 48.1881C50.6376 49.4653 50.4589 50.7426 50.2802 52.0198C50.1015 53.297 50.0121 54.5446 50.0121 55.7624C49.9228 55.7624 49.8632 55.7327 49.8632 55.6139V55.4951C49.8334 55.5248 49.8334 55.5545 49.8334 55.5842C49.8334 55.6139 49.8036 55.6139 49.7441 55.6139C49.7441 55.7327 49.7143 55.9703 49.7143 56.3267C49.6845 56.6832 49.6249 56.8614 49.5654 56.8614C49.6845 57.099 49.7143 57.2178 49.7143 57.2178L49.6249 57.396C49.6249 57.4851 49.6547 57.5446 49.7143 57.5743C49.6845 57.5743 49.6547 57.604 49.6249 57.604C49.5952 57.6337 49.5952 57.6931 49.5952 57.7822C49.5952 57.8119 49.5952 57.8119 49.6249 57.8119C49.6249 57.8119 49.6547 57.8416 49.6547 57.8713C49.6845 57.8713 49.6845 57.8713 49.6845 57.8119C49.6845 57.7525 49.6845 57.7228 49.7441 57.7228C49.6547 58.0198 49.5952 58.3762 49.5952 58.7624C49.5654 59.1485 49.5654 59.505 49.5356 59.8317C49.5356 59.3564 49.4462 59.0594 49.2973 58.9109L49.208 58.9406C49.208 58.9703 49.208 59.0297 49.2378 59.0891C49.2675 59.1782 49.2973 59.2376 49.2973 59.297L49.2378 59.3267C49.2973 59.3564 49.3271 59.4158 49.3271 59.4752L49.1484 59.3267C49.1484 59.505 49.1186 59.6238 49.1186 59.6535C49.1186 59.6238 49.0888 59.5347 49.0591 59.4158C49.0293 59.297 48.9399 59.2079 48.8208 59.2079C48.8804 59.1485 48.9101 59.0891 48.9101 59.0297C48.9101 58.9406 48.8506 58.8812 48.7314 58.8515C48.7314 58.9109 48.7314 59 48.7612 59.0891C48.791 59.2079 48.791 59.3267 48.791 59.4752C48.7314 59.4158 48.6719 59.3564 48.6719 59.2673C48.6421 59.2079 48.5825 59.0891 48.523 58.9703C48.523 59 48.523 59.0297 48.4932 59.0297C48.4634 59.0594 48.4634 59.0594 48.4634 59.0891C48.4634 59.2376 48.4634 59.3267 48.4336 59.3267C48.4038 59.3564 48.3741 59.2376 48.3145 59.0297C48.2251 59.0891 48.1954 59.1485 48.1954 59.2079C48.1954 59.2673 48.1954 59.3267 48.2251 59.3861C48.2251 59.4455 48.2549 59.505 48.2549 59.6238C48.2251 59.6238 48.2251 59.6238 48.2251 59.5644V59.5347C48.1656 59.5941 48.1656 59.6535 48.1954 59.7426C48.2251 59.8317 48.2549 59.8911 48.2549 59.9505C48.1656 59.802 48.0762 59.5941 48.0167 59.3267C47.9869 59.2079 47.9571 59.0891 47.9273 58.9109C47.9273 58.9406 47.8975 58.9406 47.8677 58.9406C47.838 58.9406 47.8082 58.9406 47.7784 58.9703C47.838 59.1188 47.8677 59.2376 47.838 59.2673C47.8082 59.3267 47.7486 59.297 47.5997 59.1188C47.5997 59.2079 47.5997 59.297 47.6295 59.3564C47.6593 59.4158 47.689 59.4752 47.689 59.5347C47.6593 59.4752 47.6295 59.4455 47.5699 59.4158C47.5103 59.3861 47.5104 59.3267 47.5104 59.1782C47.4806 59.1782 47.4806 59.2079 47.4806 59.2376C47.4806 59.297 47.4806 59.297 47.4508 59.297C47.3614 59.2079 47.3019 59.1188 47.3019 59.0594C47.2721 59 47.2721 58.9406 47.2423 58.9406L47.153 59.0297C47.1232 59.0297 47.1232 59 47.1232 58.9406C47.0934 59.0594 47.0934 59.1782 47.0934 59.2673C47.0934 59.3861 47.0934 59.4455 47.0934 59.505C47.0636 59.3861 47.0338 59.297 46.9743 59.2079C46.9445 59.1485 46.8849 59.0297 46.8253 58.9109C46.8253 59.0297 46.8551 59.1485 46.9445 59.2673C47.004 59.3861 47.0636 59.5347 47.0636 59.6832C46.9445 59.6238 46.8849 59.5644 46.8849 59.505L46.8551 59.5347C46.8551 59.5941 46.8551 59.6238 46.8849 59.6535C46.9147 59.6832 46.9147 59.6832 46.9147 59.7129C46.9147 59.7426 46.8849 59.7426 46.8849 59.7426C46.736 59.6832 46.6169 59.5644 46.5573 59.3861C46.4679 59.2079 46.4382 59.0594 46.4084 58.9109C46.4084 59 46.4084 59.0891 46.4382 59.1485C46.4382 59.2376 46.4679 59.297 46.4679 59.3564C46.319 59.3564 46.2595 59.505 46.2892 59.7723C46.319 60.0693 46.3488 60.2772 46.4382 60.4257C46.3786 60.3366 46.2892 60.2475 46.1999 60.1287C46.1106 60.0396 46.051 60.0396 46.051 60.1584C46.051 60.1881 46.051 60.1881 46.0212 60.1881C45.9914 60.1881 45.9914 60.2178 45.9914 60.2475C45.6638 59.9208 45.4553 59.5941 45.3958 59.2376C45.3064 58.9109 45.2766 58.5247 45.2766 58.1386C45.2766 57.6337 45.3064 57.1881 45.3362 56.7723C45.3958 56.3564 45.4255 55.8218 45.4553 55.1386C45.366 55.2277 45.3362 55.3168 45.3362 55.3762C45.3362 55.4653 45.366 55.5545 45.366 55.6733C45.3362 55.6436 45.3064 55.6436 45.2766 55.6436C45.2468 55.6733 45.2171 55.6436 45.2171 55.6139C45.2171 55.2277 45.2468 54.6931 45.3064 54.0099C45.366 53.3267 45.4255 52.6436 45.5447 51.9307C45.634 51.2475 45.7234 50.5941 45.8425 50C45.9616 49.4059 46.0808 49.0198 46.1999 48.7822C46.1403 49.0495 46.0808 49.3465 46.051 49.703C45.9914 50.0594 45.9616 50.3564 45.9021 50.6535C45.9616 50.6535 45.9616 50.6238 45.9616 50.5941C45.9319 50.5644 45.9319 50.5347 45.9914 50.5347C45.9914 50.6238 45.9914 50.6832 45.9616 50.7426C45.9319 50.802 45.9319 50.8317 45.9319 50.8911V50.9208C45.9319 50.9505 45.9319 50.9802 45.9616 51.0099C45.9616 51.0396 45.9914 51.0693 45.9914 51.099V51.2178C46.051 51.1287 46.1106 50.9505 46.1701 50.6535C46.2297 50.3861 46.2595 50.1188 46.2892 49.8812C46.2892 49.9109 46.2892 49.9109 46.2595 49.9109C46.2297 49.9109 46.2297 49.9406 46.2297 49.9703L46.1999 50C46.1999 49.9109 46.1999 49.7921 46.2297 49.6436C46.2595 49.495 46.2892 49.3465 46.319 49.1683C46.3488 49.0198 46.3786 48.8713 46.4084 48.7525C46.4382 48.6634 46.4382 48.604 46.4084 48.604V48.4554C46.4084 48.3069 46.4084 48.1287 46.4382 47.8911C46.4382 47.6535 46.4679 47.4455 46.4977 47.2376C46.5275 47 46.5573 46.7624 46.6466 46.5248C46.6466 46.4356 46.6466 46.3465 46.6764 46.2277C46.7062 46.1386 46.736 46.0198 46.7658 45.9307C46.9147 45.099 47.004 44.5347 47.0934 44.2376C47.153 43.9406 47.1827 43.7624 47.2125 43.6733C47.2125 43.5842 47.2423 43.5248 47.2423 43.4356C47.2423 43.3762 47.3019 43.1386 47.3614 42.7228C47.2721 42.9307 47.2125 43.0792 47.2125 43.198C47.2125 43.3168 47.1232 43.4653 46.9743 43.703C47.0338 42.9901 47.1232 42.3366 47.2721 41.6832C47.421 41.0594 47.5103 40.495 47.5699 39.9901C47.5401 39.9901 47.5401 39.9604 47.5401 39.8713C47.5401 39.7822 47.5401 39.7228 47.5401 39.6337V38.8614C47.5401 38.7426 47.5401 38.6238 47.5104 38.5644C47.4806 38.4752 47.4806 38.3861 47.4806 38.297V38.1485L47.421 38.1188C47.3614 38.1782 47.3317 38.2673 47.3019 38.3861C47.2721 38.505 47.2721 38.6238 47.2423 38.6832C47.3019 38.6238 47.3317 38.5941 47.3019 38.5941C47.2721 38.5941 47.3019 38.5644 47.3614 38.505V38.802C47.3614 39.0396 47.3317 39.3366 47.2721 39.6931C47.2125 40.0495 47.1232 40.3465 47.0338 40.5842C47.0338 40.3465 47.0338 40.0792 47.0338 39.8119C47.0338 39.5446 47.0636 39.2772 47.153 39.0693C47.153 39.0396 47.1232 39.0099 47.0636 38.9505C47.0934 38.9505 47.0934 38.9208 47.0934 38.8614C47.004 38.2376 46.9743 37.5545 47.004 36.8119C47.0338 36.0693 46.8849 35.4158 46.5871 34.8515C46.0808 35.1188 45.5149 35.6535 44.9192 36.4851C44.2938 37.3168 43.7279 38.2079 43.162 39.2178C42.5962 40.2277 42.0899 41.2376 41.6133 42.1881C41.1368 43.1683 40.8092 43.9703 40.6007 44.5644C40.5411 44.5347 40.4816 44.5347 40.4816 44.5347C40.3922 44.5347 40.3327 44.5347 40.3327 44.4752C40.3327 44.5347 40.3624 44.5941 40.3922 44.6238C40.422 44.6535 40.4518 44.7426 40.4518 44.8614V44.8911C40.2731 45.4851 40.0348 46.2871 39.7966 47.297C39.5285 48.3069 39.2605 49.3465 39.0222 50.3861C38.7542 51.4554 38.5457 52.4356 38.3372 53.3267C38.1287 54.2475 37.9798 54.8713 37.9202 55.2574V55.3465H37.95C37.9202 55.4059 37.8607 55.4653 37.8011 55.4951C37.7118 55.5248 37.6522 55.6436 37.5926 55.7921C37.5033 55.703 37.4735 55.6733 37.5033 55.6733C37.5033 55.7921 37.5033 55.8515 37.5628 55.8515C37.4437 55.9109 37.3842 55.9703 37.3842 55.9703C37.3544 55.9703 37.3246 55.9406 37.2948 55.8515C37.2055 55.9109 37.1459 55.9703 37.1161 56.0297C37.0863 56.0891 37.0268 56.1188 36.9672 56.1188C36.9076 55.8812 36.8183 55.7624 36.7289 55.7624C36.6694 55.8515 36.6098 55.9109 36.58 55.9703C36.5502 56 36.4907 56.0891 36.4609 56.2079C36.4609 56.1782 36.4311 56.1782 36.4311 56.1782C36.4013 56.1782 36.3715 56.1782 36.3715 56.1485C36.2822 56.2376 36.2524 56.297 36.2524 56.3267C36.2524 56.4158 36.2524 56.4752 36.2822 56.5049C36.1333 56.5347 36.0141 56.6238 35.9844 56.7723C35.8354 56.7723 35.7759 56.7426 35.7759 56.6535C35.7759 56.5941 35.7759 56.4752 35.7163 56.3564C35.5078 56.5347 35.4185 56.6535 35.4185 56.6832C35.4185 56.7129 35.2696 56.7426 35.0015 56.7426C34.8526 56.7426 34.7335 56.6832 34.7037 56.5049C34.6143 56.5049 34.4356 56.5347 34.1974 56.5347C33.9293 56.5644 33.6613 56.5941 33.3337 56.6535C33.0358 56.6832 32.7082 56.7426 32.4402 56.7723C32.1424 56.802 31.9637 56.802 31.8445 56.802C31.6956 56.802 31.5765 56.7723 31.5467 56.7129C31.5169 56.7129 31.4871 56.7426 31.4871 56.7723C31.4871 56.8317 31.4573 56.8317 31.3978 56.8317C31.3382 56.8317 31.2489 56.8317 31.1595 56.802C31.0404 56.802 30.9808 56.7426 30.9213 56.6832C30.9213 56.6238 30.951 56.5941 30.9808 56.5347C31.0106 56.505 31.0404 56.4752 31.0404 56.4455C31.0404 56.3564 31.0106 56.297 30.9213 56.2376C30.8319 56.2079 30.8021 56.1485 30.8021 56.1188C30.8915 56.1485 30.9213 56.1188 30.9213 56C30.8915 55.9109 30.9213 55.8218 30.9808 55.7624C31.0404 55.7624 31.0404 55.7921 31.0106 55.7921C30.9808 55.8218 30.9808 55.8218 31.0702 55.8218C31.0702 55.7327 31.0702 55.6436 31.0404 55.5248C31.0106 55.4356 31.0106 55.3465 31.0106 55.3168C31.0106 55.0198 31.0404 54.4257 31.1297 53.5347C31.1893 52.6436 31.3084 51.604 31.4276 50.3861C31.5467 49.1683 31.6658 47.8614 31.785 46.4356C31.9041 45.0396 32.0232 43.6436 32.1424 42.3069C32.2615 40.9703 32.3508 39.7525 32.4402 38.6238C32.4997 37.495 32.5593 36.604 32.5593 35.9505C32.5593 35.0297 32.4997 34.1386 32.4104 33.2772C32.2913 32.4158 32.0828 31.6139 31.7552 30.8416C30.9808 31.8812 30.2958 32.9802 29.6704 34.1683C29.0449 35.3564 28.5088 36.4851 28.0025 37.6139C26.6623 40.5842 25.5305 43.703 24.6073 46.9406C23.684 50.1782 23.0288 53.7426 22.6416 57.604C22.6416 57.901 22.6416 58.1386 22.6714 58.3168C22.7012 58.4951 22.7012 58.7327 22.7012 59.0297C22.7012 59.3861 22.6416 59.6238 22.4927 59.7723C22.3438 59.9208 22.2246 60.0099 22.0757 60.0396C21.9268 60.0693 21.7779 60.1287 21.6588 60.1584C21.5098 60.1881 21.4503 60.2772 21.4205 60.4257C21.4205 60.4554 21.4205 60.4851 21.4503 60.5149C21.4503 60.5446 21.4801 60.5743 21.4801 60.604C21.3907 60.5446 21.3311 60.5149 21.3014 60.4851C21.2716 60.4554 21.1822 60.4257 21.0631 60.4257C20.944 60.4851 20.8248 60.5446 20.6759 60.5743C20.527 60.604 20.4674 60.6337 20.4377 60.6634C20.3781 60.6634 20.1696 60.6337 19.842 60.6337C19.4846 60.604 19.2761 60.604 19.1868 60.604C19.0379 60.604 18.9485 60.6634 18.9485 60.8119C18.9187 60.9604 18.8592 61.0198 18.7102 61.0198C18.6507 61.0198 18.5315 60.9901 18.3529 60.9307C18.2933 60.9604 18.2635 60.9901 18.2635 61.0495C18.2635 61.1089 18.2337 61.1089 18.1742 61.1089C18.1146 61.1089 18.055 61.0792 18.0252 61.0792C17.9657 61.1386 17.8168 61.2277 17.6083 61.3465C17.3998 61.4653 17.1615 61.5248 16.9531 61.5248C16.8637 61.5248 16.7744 61.4059 16.7148 61.198C16.6552 60.9604 16.5957 60.6931 16.5957 60.3663C16.5659 60.0396 16.5659 59.6832 16.5659 59.2673C16.5659 58.8812 16.5659 58.4951 16.5659 58.1683C16.5659 53.1188 16.4467 48.099 16.2383 43.0495C16.1191 38.3267 16 33.1584 16 27.8713C16 27.8119 16 27.7228 16.0298 27.6337C16.0596 27.5446 16.1489 27.4851 16.268 27.396C16.268 27.3663 16.3872 27.2772 16.6552 27.1287C16.8935 26.9802 17.1913 26.802 17.5487 26.6535C17.9061 26.505 18.2635 26.3267 18.6507 26.2079C19.0379 26.0594 19.3357 26 19.6037 26C20.0803 26 20.4674 26.1485 20.7951 26.4158C21.0929 26.6832 21.3311 27.0396 21.4801 27.4851C21.629 27.9307 21.7183 28.4356 21.8077 29C21.8672 29.5644 21.897 30.1287 21.897 30.6931C21.897 31.4059 21.8672 32.3564 21.7779 33.5149C21.6885 34.6733 21.5992 35.8614 21.5098 37.0495C21.3907 38.2376 21.3014 39.3366 21.1822 40.3465C21.0631 41.3564 20.9738 42.0693 20.9142 42.5149C21.5694 40.8515 22.2246 39.1881 22.8799 37.5248C23.5351 35.8614 24.3094 34.3762 25.1731 33.0396C26.0368 31.703 27.109 30.604 28.3301 29.7723C29.5512 28.9109 31.0702 28.495 32.8869 28.495C33.0358 28.495 33.1848 28.495 33.3337 28.5248C33.4826 28.5545 33.6315 28.5545 33.7804 28.5545L33.7506 28.495C33.7506 28.4653 33.7506 28.4653 33.7804 28.4653C33.8995 28.5545 34.0485 28.6139 34.2272 28.6139C34.4059 28.6139 34.5548 28.6733 34.7037 28.7921L34.7633 28.6733C34.793 28.6733 34.8526 28.7327 35.0015 28.8515C35.0015 28.8218 34.9419 28.8218 34.8526 28.8218C34.9122 28.8812 34.9419 28.9109 34.9717 28.8812C34.9717 28.8812 35.0015 28.8812 35.0015 28.9406C35.0015 29 34.9717 29.0297 34.9122 29.0297C34.8526 29.0297 34.793 29 34.7633 28.9703C34.7335 28.9406 34.6739 28.8812 34.6143 28.8515C34.6739 28.8812 34.7037 28.9406 34.7037 29C34.7037 29.0594 34.7633 29.1188 34.9419 29.1782C34.9419 29.1485 34.9717 29.1188 35.0015 29.1188C35.0313 29.1188 35.0611 29.0891 35.0611 29.0594C35.0909 29.0594 35.0909 29.0891 35.0909 29.0891C35.0909 29.1188 35.0611 29.1485 35.0611 29.1782C35.0909 29.1485 35.1206 29.1188 35.1802 29.1188C35.2398 29.1188 35.3887 29.2673 35.5972 29.5347C35.8354 29.8317 36.0141 30.0099 36.163 30.099C36.163 30.0099 36.1928 29.9505 36.2524 29.8614C36.2822 30.0099 36.3417 30.1881 36.4013 30.396C36.4609 30.604 36.58 30.8119 36.6991 31.0495C36.8183 31.2871 36.9374 31.4653 37.0565 31.6436C37.1757 31.8218 37.2948 31.9406 37.4139 31.9406C37.4139 31.8812 37.3841 31.8515 37.3246 31.8218C37.265 31.8218 37.2352 31.7624 37.2352 31.703C37.265 31.703 37.265 31.703 37.265 31.6733C37.1161 31.495 36.9672 31.3168 36.8481 31.0792C36.58 30.6634 36.4311 30.2772 36.4311 29.9208C37.4437 31.2574 38.1287 32.7426 38.5457 34.3465C38.9329 35.9505 39.1711 37.6436 39.2605 39.396C39.737 38.7129 40.2731 37.9703 40.839 37.1089C41.4346 36.2772 42.0601 35.505 42.7749 34.7624C43.4897 34.0198 44.264 33.396 45.0979 32.9208C45.9319 32.4455 46.8551 32.1782 47.8082 32.1782C48.1656 32.1782 48.4932 32.2673 48.791 32.4752C49.0888 32.6832 49.3569 32.9208 49.5952 33.1881C49.8334 33.4851 50.0419 33.7525 50.1908 34.0495C50.3993 34.3762 50.5184 34.6139 50.6078 34.7921ZM17.3402 44.4455V44.3564C17.3402 44.3267 17.3402 44.297 17.37 44.2673C17.2807 44.2673 17.2211 44.297 17.2211 44.3564C17.2509 44.4158 17.2807 44.4455 17.3402 44.4455ZM18.0252 52.2871C18.0848 52.3762 18.0848 52.4653 18.055 52.5248C18.0252 52.6139 18.0252 52.703 18.0252 52.8515C18.0252 53.0594 18.0252 53.1485 18.055 53.1485L18.1742 51.7822C18.2337 51.7525 18.2635 51.7228 18.3231 51.6634C18.3826 51.5446 18.3826 51.4851 18.3231 51.4851C18.4422 51.2475 18.5018 51.1287 18.5315 51.1287C18.5315 51.1287 18.5613 51.099 18.5613 51.0396C18.5613 50.9505 18.5613 50.802 18.5911 50.5644C18.5911 50.3267 18.6209 50.0594 18.6507 49.7921C18.6805 49.5248 18.7102 49.2871 18.7102 49.0495C18.7102 48.8119 18.74 48.6931 18.74 48.6337C18.74 48.5743 18.74 48.604 18.7102 48.6634C18.6805 48.7525 18.6805 48.8119 18.6507 48.8119H18.5911C18.5613 48.8119 18.5613 48.8119 18.5613 48.7822V48.6337C18.5613 48.604 18.5613 48.604 18.5911 48.604C18.5911 48.4851 18.6209 48.4257 18.6805 48.3663C18.6209 48.3069 18.5911 48.2475 18.5911 48.1881C18.5911 48.1584 18.5911 48.1287 18.6209 48.0396C18.6507 47.9802 18.6507 47.9505 18.6209 47.9208L18.5315 48.0099V48.2475C18.5315 48.396 18.5315 48.4554 18.5018 48.396C18.472 48.3366 18.472 48.2772 18.4422 48.2178C18.4422 48.2772 18.4422 48.3366 18.4124 48.3663C18.3826 48.396 18.3826 48.4257 18.3826 48.4554C18.3826 48.6337 18.3826 48.8416 18.3529 49.0792C18.3231 49.3168 18.3231 49.5545 18.3231 49.7327C18.2933 49.9406 18.2933 50.1188 18.2635 50.2673C18.2337 50.4158 18.2337 50.4752 18.2337 50.4455V49.2574C18.2337 49.198 18.2337 49.1683 18.2039 49.1089C18.1742 49.0792 18.1742 49.0495 18.1742 49.0198C18.1742 49.2277 18.1742 49.4951 18.1444 49.8515C18.1146 50.2079 18.1146 50.4455 18.1146 50.5941C18.0848 50.5941 18.0848 50.5941 18.0848 50.5347C18.0848 50.3861 18.0848 50.2673 18.1146 50.1485C18.1146 50.0594 18.1146 49.9109 18.0848 49.7624L17.9955 49.9109C18.0848 49.6733 18.0848 49.4653 18.0848 49.2277C18.0848 48.9901 18.0848 48.7228 18.0848 48.4554C18.0848 48.3069 18.0848 48.099 18.055 47.802C18.0252 47.505 18.0252 47.2079 18.0252 46.9406C17.9955 46.6733 17.9955 46.4059 17.9657 46.1683C17.9359 45.9307 17.9061 45.8416 17.8763 45.8416C17.8763 45.8713 17.8465 45.9901 17.787 46.1683C17.787 46.2277 17.787 46.2871 17.7572 46.3465C17.7274 46.4059 17.7572 46.4653 17.8168 46.5248C17.8168 46.3762 17.8168 46.2871 17.8465 46.2871C17.8763 46.3168 17.8763 46.3762 17.8763 46.4356C17.8763 46.6733 17.8465 46.8812 17.8465 47.0594C17.8168 47.2376 17.8168 47.4752 17.8168 47.7129C17.8465 48.0396 17.8465 48.1881 17.8465 48.1584C17.8168 48.1287 17.8168 48.1584 17.8168 48.1881C17.8168 48.2475 17.787 48.3069 17.787 48.3366C17.7572 48.3663 17.7274 48.3069 17.7274 48.1584C17.7274 48.0396 17.7274 47.9208 17.6976 47.7723C17.6678 47.6238 17.6678 47.2673 17.6678 46.6733L17.5487 47.5941C17.5189 47.5347 17.4891 47.4455 17.4891 47.297C17.4891 47.1485 17.4891 47 17.5189 46.8812C17.5189 46.7327 17.5487 46.6139 17.5487 46.4653C17.4891 46.4653 17.4296 46.4059 17.3998 46.2277C17.37 46.0792 17.37 46.0495 17.37 46.1386C17.37 46.198 17.3402 46.3168 17.3104 46.4356C17.2807 46.5842 17.2807 46.703 17.3402 46.7624C17.37 46.7921 17.3998 46.7921 17.3998 46.7327C17.3998 46.703 17.4296 46.6733 17.4594 46.6733L17.37 46.8515V46.8812C17.4296 46.8812 17.4296 46.9109 17.3998 46.9703C17.37 47.0297 17.3402 47.0891 17.3402 47.1485C17.3402 47.297 17.3402 47.3564 17.37 47.297C17.37 47.2376 17.3998 47.3267 17.3998 47.5347C17.3998 47.5941 17.4296 47.6535 17.4594 47.6832C17.4891 47.7129 17.5189 47.7426 17.5189 47.7723C17.4891 47.7723 17.4594 47.7723 17.4594 47.7426C17.4296 47.7129 17.4296 47.7129 17.3998 47.7129V47.8911C17.4296 47.8911 17.4594 47.8911 17.4891 47.8317V47.8911C17.4296 47.9208 17.3998 48.0099 17.3998 48.1881C17.3998 48.3663 17.3998 48.4851 17.3998 48.5446C17.3998 48.8119 17.3998 49.0198 17.3998 49.1683C17.3998 49.3168 17.3998 49.4653 17.3998 49.5842C17.3998 49.703 17.3998 49.8515 17.3998 50C17.3998 50.1782 17.3998 50.3861 17.4296 50.6832C17.3998 50.9505 17.3998 51.1287 17.4296 51.1881C17.4594 51.2772 17.4594 51.396 17.4594 51.5743C17.4594 51.7228 17.5785 51.8416 17.8168 51.901C17.8168 52.0495 17.787 52.1386 17.787 52.1386C17.7572 52.1683 17.787 52.2277 17.8763 52.3465C17.9061 52.3168 17.9359 52.2871 18.0252 52.2871ZM17.4594 44.7129C17.4594 44.802 17.4296 44.8614 17.4296 44.8911C17.4891 44.9208 17.5189 45.0099 17.5189 45.1584V45.2475C17.5189 45.2178 17.5189 45.1881 17.5785 45.1881C17.6083 45.1881 17.6083 45.1287 17.6083 45.0693C17.6083 44.802 17.5785 44.6238 17.4594 44.5347V44.7129ZM17.5487 45.9307C17.5487 45.8416 17.5487 45.7525 17.5487 45.6337C17.5487 45.5446 17.5189 45.4554 17.4891 45.396C17.4891 45.4554 17.4594 45.5446 17.4594 45.6931C17.4296 45.8119 17.4594 45.901 17.5487 45.9307ZM17.5487 49.6139C17.5487 49.7921 17.5487 49.9703 17.5785 50.1188C17.5785 50.2673 17.5785 50.4158 17.5487 50.5941C17.5487 50.5347 17.5487 50.4752 17.5189 50.4455C17.4891 50.3861 17.4891 50.3564 17.4891 50.297C17.4891 50.1782 17.4891 50.0594 17.4594 49.9109C17.4891 49.7624 17.4891 49.6733 17.5487 49.6139ZM17.5487 48.0099C17.5785 48.0693 17.5785 48.1584 17.5785 48.2772C17.5785 48.396 17.5785 48.5149 17.5785 48.604C17.5785 48.7228 17.5785 48.8119 17.6083 48.901C17.6083 48.9901 17.6083 49.0792 17.5487 49.198C17.5189 49.2574 17.4891 49.198 17.4891 49.0198C17.4891 48.8416 17.4891 48.6634 17.4891 48.4257C17.4891 48.3663 17.4891 48.2772 17.4891 48.1287C17.5189 47.9802 17.5189 47.9505 17.5487 48.0099ZM17.6083 51.604C17.5487 51.604 17.5189 51.5446 17.5189 51.3663C17.5189 51.3069 17.5189 51.2772 17.5487 51.2475C17.5487 51.2178 17.5785 51.1881 17.5785 51.1584C17.6083 51.1881 17.6083 51.2178 17.6083 51.2475V51.604ZM17.6381 43.8812C17.5785 43.8812 17.5487 43.9109 17.5487 43.9703C17.5487 44.0297 17.5785 44.0594 17.6381 44.0594V43.8812ZM17.6976 44.4455C17.6678 44.4455 17.6678 44.4455 17.6678 44.4158V44.2673C17.6381 44.297 17.6381 44.3564 17.6381 44.4158C17.6381 44.4752 17.6381 44.5049 17.6678 44.5049L17.6976 44.4455ZM17.6976 45.1584C17.6381 45.3069 17.6083 45.5149 17.6083 45.7525C17.6083 45.9901 17.6083 46.1683 17.6381 46.2871C17.6678 46.0792 17.6678 45.901 17.6678 45.7525C17.6678 45.604 17.6678 45.396 17.6976 45.1584ZM17.7274 49.5248C17.7274 49.6139 17.7274 49.7327 17.7572 49.8218C17.787 49.9703 17.787 50.0891 17.787 50.2376C17.7274 50.1188 17.6976 50 17.6976 49.9406C17.6976 49.7624 17.6976 49.6139 17.7274 49.5248ZM17.7274 50.7723C17.7572 50.802 17.787 50.8317 17.787 50.8614C17.787 50.9208 17.8168 50.9802 17.8465 51.0396C17.9061 51.099 17.8763 51.1584 17.8168 51.1584L17.787 51.3663C17.7572 51.3366 17.7274 51.1287 17.7274 50.7723ZM17.9061 48.901C17.8465 48.901 17.8168 48.901 17.8168 48.8713C17.8168 48.8416 17.8168 48.8119 17.8465 48.7525C17.8465 48.7228 17.8763 48.6634 17.8763 48.6337C17.8763 48.6634 17.8763 48.6634 17.9061 48.6634C17.9061 48.6931 17.9061 48.6931 17.9359 48.6931C17.9359 48.6931 17.9657 48.7228 17.9657 48.7822L17.9061 48.901ZM18.5315 49.5248C18.5315 49.7327 18.5018 49.9703 18.5018 50.1782C18.472 50.4158 18.4422 50.6535 18.4124 50.9208C18.4124 50.7129 18.4124 50.4752 18.4124 50.1782C18.4124 49.9406 18.4422 49.703 18.5315 49.5248ZM18.5911 47.9208C18.6209 47.8911 18.6209 47.802 18.6209 47.6535C18.5613 47.7129 18.5315 47.7723 18.5315 47.8317V47.9208H18.5911ZM18.7996 49.5248C18.9187 49.3762 18.9783 49.1683 19.0379 48.9307C19.0676 48.6931 19.0676 48.4257 19.0676 48.1881C19.0081 48.1881 18.9783 48.0099 18.9783 47.5941V45.8713C18.9783 45.901 18.9783 45.901 18.9783 45.8416C18.9783 45.7822 18.9485 45.7822 18.9485 45.7822C18.9187 46.3762 18.8889 46.9406 18.8592 47.4455C18.8294 47.8614 18.8294 48.2772 18.8294 48.6931C18.7996 49.1089 18.7996 49.3762 18.7996 49.5248ZM18.9485 49.6139L18.9187 49.703C18.9187 49.7327 18.9187 49.7624 18.8889 49.7921C18.8592 49.8218 18.8592 49.8515 18.8592 49.8812C18.8592 49.9109 18.8592 49.9109 18.9187 49.9109C18.8592 49.9703 18.8294 50.0594 18.8294 50.1782C18.8294 50.297 18.8294 50.3861 18.8592 50.4158C18.8592 50.2673 18.8592 50.1782 18.8889 50.1485C18.8889 50.1188 18.9187 50.0891 18.9187 50C18.9187 50.0297 18.9187 50.0297 18.9485 50.0297V49.6139ZM18.9187 48.6337C18.9783 48.6337 18.9783 48.6634 18.9485 48.6931C18.9187 48.7228 18.9187 48.7525 18.9783 48.7525C18.9485 48.7822 18.9187 48.7822 18.8889 48.7822C18.8592 48.7822 18.8294 48.7822 18.8294 48.7525C18.8592 48.7228 18.8592 48.6634 18.9187 48.6337ZM19.0379 48.5446C18.9783 48.5446 18.9485 48.5149 18.9187 48.4554C18.8889 48.396 18.8889 48.3663 18.8889 48.3366C18.9783 48.3366 19.0379 48.396 19.0379 48.5446ZM19.0676 47.9802C19.157 47.7723 19.1868 47.505 19.1868 47.2079C19.157 46.9109 19.157 46.7921 19.157 46.8812C19.157 47.0594 19.1272 47.2376 19.1272 47.4455C19.0974 47.5941 19.0676 47.802 19.0676 47.9802ZM34.2272 28.6733C34.2569 28.7327 34.2867 28.7624 34.3165 28.7921C34.3463 28.8218 34.3761 28.8515 34.4356 28.9109C34.3761 28.7327 34.2272 28.6436 33.9889 28.6436C33.9889 28.6733 34.0782 28.6733 34.2272 28.6733ZM35.0015 29.3267C35.0015 29.4158 35.0313 29.4752 35.1206 29.4752V29.4455C35.1206 29.4752 35.0611 29.4455 35.0015 29.3267ZM35.1504 29.5644L35.1206 29.6238L35.1504 29.6535C35.1802 29.6535 35.21 29.6535 35.2398 29.6238H35.21C35.1802 29.6238 35.1504 29.5941 35.1504 29.5644ZM35.3291 29.5644C35.3291 29.6832 35.3887 29.7426 35.5078 29.7426C35.5078 29.6238 35.4483 29.5644 35.3291 29.5644ZM35.4185 29.0891V29.0594L35.3589 29.0297L35.4185 29C35.4483 29 35.478 29.0297 35.478 29.0594C35.478 29.1188 35.5376 29.1188 35.627 29.1188L35.5674 29.1485C35.5674 29.2079 35.5674 29.2376 35.5972 29.2673C35.5972 29.297 35.627 29.3267 35.6567 29.3861C35.627 29.3861 35.5674 29.3564 35.478 29.2673C35.4185 29.2376 35.3589 29.2079 35.3291 29.1782C35.3887 29.0891 35.3887 29.0891 35.4185 29.0891ZM35.895 29.5644L35.8057 29.5347C35.7759 29.5347 35.7759 29.5347 35.7759 29.505C35.7759 29.4752 35.7759 29.4752 35.8057 29.4752C35.8057 29.4752 35.8354 29.4752 35.8354 29.4455C35.8354 29.4752 35.8354 29.4752 35.8652 29.4752C35.895 29.4752 35.9248 29.505 35.9248 29.5644H35.895ZM45.4255 35.7723C45.5745 35.6238 45.7532 35.4752 45.9914 35.3267C46.2297 35.1782 46.3786 35.0297 46.4679 34.8812C46.2595 34.8812 46.1403 34.9109 46.1403 34.9406C46.1105 34.9703 46.1403 34.9109 46.1999 34.7327C46.1999 34.703 46.1403 34.7624 46.0212 34.8515C45.9021 34.9703 45.8425 34.9109 45.8425 34.6733C45.8425 34.6436 45.8425 34.6139 45.8723 34.6139C45.8723 34.6139 45.9021 34.5545 45.9021 34.495C45.8127 34.5545 45.6936 34.6733 45.5745 34.7921C45.4553 34.9406 45.3362 34.9703 45.2766 34.8218L45.0979 34.9109C45.0086 34.9703 44.949 35.0594 44.949 35.1782H44.9788C44.9788 35.2376 44.8597 35.3564 44.681 35.4752C44.4725 35.6238 44.3236 35.7723 44.264 35.9208V35.8911C43.7875 36.3366 43.311 36.901 42.8642 37.5545C42.3877 38.2079 42.1196 38.8614 42.0005 39.4851C42.0899 39.4257 42.1494 39.3663 42.209 39.3069C42.2686 39.2475 42.2983 39.2178 42.3281 39.2178C42.3579 39.2178 42.3877 39.2475 42.3877 39.2475C42.3877 39.3069 42.3877 39.3663 42.4175 39.4257C42.3579 39.4257 42.2983 39.5149 42.2686 39.6931C42.209 39.8713 42.1196 40.0198 41.9707 40.1089C42.0303 40.1683 42.0601 40.198 42.0601 40.1386C42.0601 40.198 42.0005 40.3465 41.8516 40.5545C41.7027 40.7624 41.5835 41.0297 41.4346 41.297C41.2857 41.5941 41.1368 41.9208 40.9879 42.2772C40.839 42.6337 40.7496 42.9901 40.7198 43.3465C40.8092 43.2277 40.8688 43.1683 40.8985 43.1089C40.9283 43.0792 40.9581 43.0495 41.0475 42.9604C40.9879 43.198 40.9283 43.4356 40.839 43.6733C40.7496 43.9109 40.7198 44.0891 40.7198 44.1485C41.1368 43.1386 41.4346 42.4554 41.6133 42.1287C41.792 41.802 41.8814 41.5941 41.8814 41.5347C41.8814 41.3564 41.9707 41.1188 42.1792 40.8812C42.3579 40.6139 42.477 40.3762 42.477 40.1089C42.6855 39.7822 42.9238 39.396 43.162 38.9802C43.4003 38.5644 43.6684 38.1188 43.9364 37.703C44.2044 37.2871 44.5023 36.901 44.8001 36.5149C45.0979 36.1584 45.4255 35.8317 45.7532 35.5941C45.6936 35.5941 45.634 35.5941 45.5745 35.6238C45.5149 35.7426 45.4553 35.7723 45.4255 35.7723ZM41.4942 41.9505C41.4346 41.8911 41.4346 41.802 41.4942 41.7129C41.5538 41.6238 41.6133 41.5347 41.6729 41.4455C41.6431 41.5347 41.6133 41.6238 41.5538 41.7129C41.524 41.802 41.4942 41.8911 41.4942 41.9505ZM42.3877 36.9307C42.3281 37.0198 42.2686 37.1089 42.1792 37.2277C42.0899 37.3465 42.0601 37.4356 42.0601 37.5248C42.0899 37.4356 42.1494 37.3465 42.209 37.2277C42.3281 37.1089 42.3579 37.0198 42.3877 36.9307ZM42.7153 36.5149C42.7153 36.5446 42.6855 36.5743 42.6557 36.604C42.6259 36.6337 42.5962 36.6634 42.5962 36.6931C42.5962 36.7228 42.5962 36.7525 42.6259 36.7525C42.6259 36.7228 42.6557 36.6931 42.6855 36.6634C42.7153 36.6337 42.7451 36.604 42.7451 36.5743L42.7153 36.5149ZM43.2514 37.9109C43.2514 38.0594 43.1918 38.2376 43.0727 38.4752C42.9536 38.7129 42.8046 38.8614 42.6557 38.9505C42.7153 38.7723 42.7749 38.6535 42.8344 38.5644C42.894 38.4455 43.0429 38.2376 43.2514 37.9109ZM43.162 37.7624C43.1323 37.8218 43.0727 37.9109 42.9833 38.0594C42.894 38.2079 42.8046 38.2673 42.7451 38.297C42.7749 38.1782 42.8344 38.0891 42.894 38C42.9833 37.9406 43.0727 37.8515 43.162 37.7624ZM43.0727 38.9208C43.1323 38.6832 43.2216 38.505 43.3705 38.3564C43.3705 38.4158 43.3407 38.505 43.2514 38.6238C43.1918 38.7426 43.1323 38.8317 43.0727 38.9208ZM43.2812 36.9307C43.2216 36.8713 43.1918 36.8416 43.2216 36.8119C43.2216 36.8119 43.2216 36.7822 43.162 36.7525C43.162 36.8119 43.162 36.8713 43.162 36.8713C43.162 36.901 43.1918 36.9307 43.2812 36.9307ZM43.7875 37.7624C43.7875 37.8218 43.7577 37.9109 43.7279 38.0297C43.6981 38.1485 43.6088 38.2376 43.5194 38.2673C43.4897 38.1782 43.5194 38.1188 43.579 38.0297C43.6684 37.9703 43.7279 37.8812 43.7875 37.7624ZM43.8173 37.2277C43.8173 37.3465 43.7875 37.4356 43.7279 37.4653C43.6684 37.5248 43.6088 37.5842 43.5492 37.6733C43.579 37.5842 43.6088 37.5248 43.6386 37.4653C43.6684 37.4356 43.6981 37.3465 43.6981 37.2277H43.8173ZM43.9364 34.0792C43.8768 34.1386 43.8173 34.1683 43.7875 34.198C43.7577 34.2277 43.6981 34.2574 43.6386 34.3168C43.6981 34.2871 43.7577 34.2574 43.847 34.2277C43.8768 34.1683 43.9364 34.1386 43.9364 34.0792ZM44.4129 36.7822C44.4427 36.8416 44.4129 36.9307 44.3831 37.0198C44.3236 37.1386 44.2342 37.2277 44.1449 37.3465C44.0555 37.4653 43.9662 37.5545 43.8768 37.6436C43.7875 37.7327 43.7279 37.7327 43.6981 37.703C43.8173 37.5248 43.9364 37.3762 44.0555 37.2277C44.1747 37.1089 44.2938 36.9604 44.4129 36.7822ZM43.9364 35.9802C44.0853 35.802 44.2342 35.6535 44.3534 35.5347C44.5023 35.4158 44.6214 35.297 44.7405 35.1782C44.5916 35.2079 44.4129 35.3267 44.2342 35.5347C44.0257 35.7426 43.9364 35.8911 43.9364 35.9802ZM44.264 36.6931C44.264 36.8119 44.2044 36.901 44.0853 36.9604L44.0555 36.901C44.0555 36.8713 44.1151 36.7822 44.264 36.6931ZM44.1449 35.1782C44.3534 35.1782 44.5618 35.0297 44.8001 34.7624C45.0384 34.495 45.2171 34.2871 45.3958 34.1089C45.0384 34.2871 44.7108 34.5248 44.4129 34.8218C44.3236 34.8515 44.264 34.9109 44.2342 35L44.1449 35.1782ZM44.3236 34.5248C44.2938 34.495 44.264 34.4653 44.2342 34.4653C44.1747 34.4653 44.1449 34.495 44.1449 34.5545C44.1747 34.5545 44.2044 34.5545 44.2044 34.5248C44.2044 34.5248 44.2342 34.495 44.264 34.495H44.3236V34.5248ZM44.1449 37.8515L44.1747 37.7921C44.2044 37.7624 44.2044 37.7327 44.2044 37.7327C44.2044 37.7327 44.2044 37.703 44.2342 37.6733C44.1747 37.7327 44.1449 37.7921 44.1449 37.8515ZM44.6214 34.198C44.4725 34.198 44.3831 34.2277 44.3831 34.2871C44.3831 34.3168 44.3831 34.3168 44.4129 34.3168C44.4129 34.2574 44.4427 34.2277 44.5023 34.2574C44.5916 34.2871 44.6214 34.2574 44.6214 34.198ZM44.4129 36.6931C44.4427 36.6337 44.5321 36.5743 44.681 36.5149C44.681 36.5446 44.6512 36.5743 44.5916 36.6337C44.5321 36.6634 44.4725 36.6931 44.4129 36.6931ZM44.7703 34.0198C44.7703 34.0792 44.7405 34.1089 44.7405 34.1089C44.7108 34.1089 44.7108 34.1386 44.7108 34.1386V34.1683L44.7405 34.1386C44.8001 34.1386 44.8299 34.1089 44.8299 34.0495L44.7703 34.0198ZM44.681 36.3366C44.7703 36.2178 44.8597 36.1287 44.9192 36.0396C44.9788 35.9802 45.0979 35.8911 45.2468 35.8317C45.1277 35.9505 45.0086 36.0693 44.9192 36.1584C44.8299 36.2772 44.7405 36.3366 44.681 36.3366ZM45.3064 35.0891C45.3064 35.2376 45.2171 35.3267 45.0384 35.3267L45.3064 35.0891ZM45.5745 34.4653C45.5745 34.3762 45.5447 34.3465 45.5447 34.3465C45.4851 34.4059 45.3958 34.4653 45.2766 34.5545C45.1575 34.6436 45.0979 34.703 45.0979 34.7921C45.1873 34.6139 45.366 34.495 45.5745 34.4653ZM45.3064 35.2673L45.2171 35.4455C45.1873 35.4455 45.1575 35.4455 45.1277 35.4158L45.1575 35.3564C45.2171 35.297 45.2766 35.2673 45.3064 35.2673ZM46.1105 33.8416C46.051 33.8416 45.9914 33.8713 45.8723 33.901C45.7829 33.9604 45.6936 33.9901 45.634 34.0495C45.5447 34.0792 45.5149 34.1386 45.5149 34.1683C45.5149 34.198 45.5745 34.198 45.7532 34.198H45.7829C45.8127 34.0495 45.8723 33.9604 45.9616 33.9604C46.051 33.9307 46.1105 33.901 46.1105 33.8416ZM45.6042 54.6634C45.6042 54.7228 45.6042 54.8416 45.5745 55.0495C45.5447 55.2574 45.5447 55.4653 45.5447 55.6733C45.5447 55.8812 45.5447 56.1188 45.5447 56.3267C45.5447 56.5347 45.5447 56.7426 45.5447 56.9208C45.5447 57.0693 45.5447 57.099 45.5745 56.9505C45.5745 56.8317 45.6042 56.6832 45.6042 56.4752C45.6042 56.2673 45.634 56.0594 45.634 55.8218C45.634 55.5842 45.6638 55.4059 45.6936 55.2871C45.6936 55.2277 45.6936 55.1683 45.6638 55.0792C45.634 55.0198 45.634 54.9307 45.634 54.8713C45.634 54.6337 45.634 54.4257 45.634 54.2475C45.634 54.0693 45.634 53.9208 45.6638 53.802C45.5447 54.0693 45.4851 54.3366 45.4851 54.604L45.6042 54.6634ZM45.6638 52.4653C45.6638 52.5545 45.6638 52.6733 45.6936 52.7921C45.6936 52.9109 45.7532 53 45.8127 53.0594C45.8425 53.0594 45.8723 53.0594 45.8723 53.0297C45.8723 53 45.9021 53.0297 45.9021 53.0594C45.9319 53.0594 45.9616 52.9109 46.051 52.5842C46.1106 52.2871 46.1701 52.0495 46.2297 51.9307C46.1701 51.9307 46.1403 51.9604 46.1403 52.0198L46.1105 52.0495L46.2595 51.0396C46.1999 51.099 46.1403 51.2475 46.0808 51.5149C46.0212 51.7822 45.9914 51.9307 45.9914 51.9901C45.9914 51.9604 45.9914 51.9307 45.9616 51.901C45.9319 51.8713 45.9319 51.8119 45.9319 51.7228C45.9021 51.8416 45.9021 51.9901 45.9021 52.1386C45.9021 52.2871 45.9021 52.4059 45.8723 52.4356C45.8723 52.2574 45.8425 52.1386 45.7829 52.0198C45.6936 52.1089 45.6638 52.2574 45.6638 52.4653ZM45.8723 56.1782C45.7829 56.3267 45.7532 56.4752 45.7532 56.5941C45.7532 56.8317 45.7829 56.8614 45.8127 56.6535C45.8723 56.4455 45.8723 56.297 45.8723 56.1782ZM45.9319 54.4257C45.9021 54.4851 45.8723 54.5446 45.8425 54.6337C45.8127 54.7228 45.8127 54.7822 45.8127 54.8416C45.8127 54.901 45.8127 54.9604 45.8425 55.0198C45.8425 55.0792 45.8723 55.1386 45.8723 55.198C45.9021 54.9604 45.9319 54.6931 45.9319 54.4257ZM46.319 54.2772C46.1403 54.8119 46.0212 55.2574 45.9914 55.5842C45.9616 55.9406 45.9319 56.1485 45.9616 56.297C45.9616 56.4455 46.0212 56.4455 46.0808 56.3267C46.1403 56.2079 46.1701 55.9406 46.2297 55.5248L46.4084 54.604C46.4084 54.5446 46.4084 54.4851 46.3786 54.4554C46.3488 54.396 46.319 54.3663 46.319 54.2772ZM46.1999 58.0495C46.1999 57.9901 46.2297 57.901 46.2892 57.7822C46.2892 57.6931 46.2595 57.6337 46.1999 57.6337C46.2892 57.0693 46.2892 56.7426 46.2297 56.6238C46.1403 56.5347 46.1105 56.8614 46.1105 57.6634C46.1105 57.8416 46.1403 57.9901 46.1999 58.0495ZM46.1403 48.1881C46.1403 47.0594 46.2892 45.9307 46.5573 44.8317C46.8253 43.703 46.9743 42.604 46.9743 41.505C46.9743 41.4158 47.004 41.3564 47.0636 41.2673C47.0934 41.2376 47.1232 41.2079 47.1827 41.1782C47.1827 41.4158 47.153 41.7426 47.0934 42.1881C47.0338 42.6337 46.9743 42.9604 46.9147 43.2277C46.8551 43.5248 46.7956 43.8218 46.7658 44.1188C46.736 44.4158 46.6466 44.7426 46.5573 45.099C46.6169 45.0099 46.6466 45.0099 46.6764 45.099C46.6764 45.1881 46.7062 45.2178 46.7062 45.1287C46.7062 45.2475 46.6764 45.3366 46.6764 45.3663C46.6466 45.396 46.6169 45.4851 46.5871 45.6337C46.5871 45.8416 46.5871 46.0198 46.6169 46.1089C46.5573 46.2277 46.4977 46.4059 46.4679 46.6436C46.4382 46.8812 46.4084 47.1188 46.3786 47.3564C46.3488 47.5941 46.319 47.802 46.2892 47.9802C46.2595 48.1584 46.2297 48.2475 46.1999 48.2475C46.1999 48.2178 46.1999 48.1881 46.2297 48.1287C46.2297 48.099 46.2595 48.0396 46.2595 47.9802C46.2297 47.9802 46.2297 48.0099 46.2297 48.0693C46.2297 48.1584 46.1999 48.1881 46.1403 48.1881ZM46.4679 51.4851C46.3786 51.7228 46.319 51.9604 46.319 52.1386C46.319 52.3465 46.2892 52.5545 46.2297 52.7624L46.2595 52.7921C46.2892 52.7921 46.319 52.7327 46.3488 52.6139C46.3786 52.495 46.4084 52.3465 46.4382 52.198C46.4679 52.0495 46.4977 51.8713 46.5275 51.6931C46.5573 51.5446 46.5871 51.4257 46.5871 51.3663V51.3366C46.6169 51.3069 46.6169 51.2772 46.6169 51.2475C46.6169 51.2178 46.5871 51.2178 46.5871 51.2178C46.5871 51.2475 46.5573 51.3069 46.5275 51.3366C46.4977 51.4257 46.4679 51.4554 46.4679 51.4851ZM46.4679 53.802C46.5573 53.7129 46.6169 53.6238 46.6169 53.5347C46.6466 53.2376 46.6764 53.0594 46.7062 52.9703C46.736 52.9109 46.736 52.8515 46.736 52.8218C46.736 52.7921 46.736 52.7624 46.7658 52.6733C46.7658 52.6139 46.7956 52.4356 46.8253 52.198C46.8253 52.1683 46.8253 52.1386 46.7956 52.1089C46.7658 52.0792 46.7658 52.0495 46.7658 52.0198C46.7658 51.9604 46.7658 51.901 46.8253 51.7822C46.8551 51.6931 46.8551 51.5743 46.8551 51.4257C46.7658 51.6931 46.7062 52.0495 46.6466 52.5248C46.6169 53 46.5275 53.2673 46.4382 53.3564C46.319 53.4752 46.2892 53.5347 46.4084 53.5347C46.4977 53.5347 46.5275 53.6238 46.4679 53.802ZM46.4977 55.5545C46.5573 55.4059 46.5871 55.2574 46.6169 55.1089C46.6169 54.9604 46.6466 54.8119 46.6466 54.6634C46.6466 54.6337 46.6466 54.6337 46.6169 54.6337C46.5871 54.6337 46.5871 54.6337 46.5871 54.604L46.7062 54.2475C46.7062 54.1287 46.6764 54.1287 46.6466 54.2475C46.6169 54.3663 46.5871 54.396 46.5871 54.3366C46.5573 54.3366 46.5275 54.4851 46.4977 54.7525C46.4679 55.0495 46.4679 55.2277 46.4679 55.3465C46.4679 55.4059 46.4679 55.4951 46.4977 55.5545ZM46.9445 54.2772C46.8849 54.2772 46.8253 54.4851 46.736 54.9307C46.6466 55.3762 46.6169 55.703 46.5871 55.9703C46.6169 55.9109 46.6764 55.7921 46.7956 55.5842C46.8849 55.4059 46.9445 54.9901 46.9445 54.3663V54.2772ZM46.8253 50.2376C46.7658 50.3861 46.736 50.505 46.7658 50.6238C46.7658 50.7426 46.736 50.8614 46.6466 51.0396C46.7658 50.8911 46.8253 50.7129 46.8849 50.505C46.8849 50.4455 46.8849 50.4158 46.8551 50.3861C46.8253 50.3564 46.8253 50.297 46.8253 50.2376ZM46.6764 53.7129C46.8253 53.7129 46.8849 53.6238 46.8551 53.4158C46.8253 53.2376 46.8253 53.0891 46.8253 53.0297C46.8253 53 46.8253 52.9703 46.8551 52.9703C46.8551 52.9703 46.8849 52.9406 46.8849 52.9109C46.8849 52.8812 46.8849 52.8515 46.8551 52.8515C46.8253 52.8515 46.8253 52.8218 46.8253 52.7921C46.7956 52.9406 46.7658 53.1188 46.736 53.3267C46.7062 53.5347 46.6764 53.6535 46.6764 53.7129ZM47.0338 44.3267C47.0338 44.3564 47.004 44.505 46.9743 44.7129C46.9445 44.9505 46.8849 45.0693 46.8253 45.0693V44.802C46.8253 44.7426 46.8253 44.7129 46.8551 44.6535C46.8253 44.6238 46.8253 44.5347 46.8253 44.4158C46.8551 44.297 46.9147 44.2673 47.0338 44.3267ZM47.0934 55.4653C47.0636 55.4653 47.0636 55.4653 47.0636 55.4356C47.0636 55.4356 47.0338 55.4059 47.004 55.4059C46.9743 55.4059 46.9743 55.4356 46.9743 55.4951C46.9743 55.5545 46.9445 55.5842 46.9445 55.5842C46.9743 55.6436 46.9743 55.7624 46.9743 55.9109C46.9743 55.9703 46.9743 56.0297 46.9445 56.1188C46.9147 56.2079 46.9147 56.2673 46.9147 56.3267C46.9147 56.4158 46.9147 56.505 46.9445 56.5644L47.0934 55.4653ZM47.0934 41.0297C47.0934 41.1782 47.0636 41.2673 46.9445 41.2673V41.2376C46.9445 41.0891 47.004 41.0297 47.0934 41.0297ZM47.5401 43.2871C47.4806 43.3465 47.421 43.4653 47.3912 43.5842C47.3614 43.7327 47.3614 43.8812 47.3614 44.0297C47.4806 43.7921 47.5401 43.5248 47.5401 43.2871ZM47.4508 44.2673C47.4508 44.2376 47.4508 44.1782 47.5104 44.1188C47.5401 44.0594 47.5401 43.9703 47.5401 43.9109L47.3614 44.2673H47.4508ZM47.3912 56.0594C47.4508 56 47.5401 55.8218 47.6295 55.5248C47.7188 55.2277 47.7784 55.0495 47.7784 54.9307C47.7784 54.8713 47.7486 54.8119 47.689 54.7525C47.7188 54.8713 47.689 54.9604 47.6295 55.0198C47.5699 55.0792 47.5103 55.198 47.4508 55.3168C47.4508 55.3465 47.4508 55.4356 47.421 55.5545C47.4508 55.7327 47.421 55.9109 47.3912 56.0594ZM47.6593 40.7624L47.5401 41.2376C47.5401 41.3861 47.5401 41.505 47.5699 41.5941C47.5699 41.505 47.5997 41.3564 47.7188 41.1485C47.8082 40.9406 47.838 40.8218 47.838 40.7624L47.8082 40.703L47.6593 40.7624C47.689 40.7624 47.7188 40.7624 47.7188 40.703H47.6593V40.7624ZM47.7188 56.0297C47.6593 56.0297 47.5997 56.1485 47.5699 56.4158C47.5401 56.6832 47.5401 56.8317 47.5401 56.8911C47.5401 56.8614 47.5699 56.8317 47.6593 56.7723C47.7188 56.7426 47.7784 56.5347 47.7784 56.2079C47.7486 56.0891 47.7486 56.0297 47.7188 56.0297ZM47.7188 40.4059C47.7188 40.3762 47.7188 40.3168 47.7486 40.198C47.7784 40.1089 47.7784 40.0198 47.7784 39.9604C47.689 40.1089 47.6295 40.2574 47.6295 40.4059C47.6295 40.4356 47.6593 40.4356 47.7188 40.4356V40.4059ZM49.5952 56.0297C49.5952 55.9406 49.5952 55.8515 49.5654 55.7327C49.5356 55.6436 49.5356 55.5248 49.5356 55.4059C49.5356 55.3465 49.5356 55.2574 49.5654 55.1386C49.5654 55.0198 49.6547 54.9901 49.7739 55.0198C49.8036 54.4851 49.8632 53.9802 49.9525 53.4752C50.0419 52.9703 50.0717 52.4653 50.0717 51.9604C50.0121 52.0792 49.9823 52.198 50.0121 52.2574C50.0121 52.3465 50.0121 52.4059 49.9525 52.4356V51.5149C49.893 51.8713 49.8334 52.198 49.7739 52.4653C49.7143 52.7624 49.6547 53.0594 49.5952 53.3861C49.5952 53.1782 49.5952 52.9703 49.6249 52.7624C49.6249 52.5545 49.6547 52.3762 49.6547 52.198C49.6249 52.198 49.6249 52.1386 49.6249 52.0198C49.6249 51.901 49.6249 51.8119 49.5654 51.7525L49.3867 53.5049C49.3867 53.5941 49.3867 53.6832 49.3569 53.802C49.3271 53.9208 49.3271 53.9802 49.3271 54.0099C49.2973 53.9802 49.2973 53.9208 49.2973 53.8317C49.2973 53.7426 49.2973 53.6535 49.3271 53.5347C49.3271 53.4158 49.3569 53.3267 49.3569 53.2673C49.3569 53.1485 49.3271 53.0594 49.3271 53C49.2675 53.1188 49.2378 53.2079 49.2675 53.297C49.2675 53.3861 49.2675 53.4752 49.208 53.6238C49.1782 53.5941 49.1782 53.5347 49.1782 53.3861C49.1782 53.2376 49.208 53.0891 49.2378 52.9406C49.2675 52.7921 49.2973 52.6139 49.2973 52.4059L49.2675 52.3168C49.1484 52.3168 49.0888 52.3465 49.0888 52.4653C49.0888 52.4059 49.0888 52.3168 49.0888 52.2277C49.0888 52.1386 49.1484 52.0792 49.2378 52.0792V52.2277C49.2675 52.2277 49.2973 52.1683 49.2973 52.0792C49.2973 51.9901 49.3271 51.8416 49.3271 51.7228C49.3271 51.5743 49.3569 51.4851 49.3569 51.3663C49.3569 51.2772 49.3569 51.2178 49.3569 51.2475C49.2973 51.3069 49.2675 51.4257 49.2378 51.604C49.208 51.7822 49.208 51.8713 49.1782 51.8713L49.0888 51.7822C49.0888 51.7228 49.0888 51.6931 49.1484 51.6337C49.1782 51.604 49.1782 51.5743 49.1782 51.5446V51.5149C49.1782 51.3663 49.1782 51.1881 49.208 51.0099C49.208 50.8317 49.2378 50.6535 49.2675 50.505C49.2378 50.5644 49.208 50.6832 49.1782 50.802C49.1484 50.9505 49.1484 51.0693 49.1484 51.1287C49.1484 51.099 49.1484 51.099 49.1186 51.099C49.0888 51.099 49.0888 51.099 49.0888 51.0396C49.0888 50.8911 49.0888 50.7426 49.1484 50.5941C49.1782 50.4455 49.1782 50.297 49.1782 50.1485C49.0888 50.5644 48.9995 50.9802 48.9399 51.3663C48.8506 51.7525 48.8208 52.1089 48.791 52.3762V52.4356C48.791 52.4653 48.791 52.4951 48.8208 52.5545C48.8208 52.5842 48.8506 52.6436 48.8506 52.703C48.8506 52.8515 48.8208 52.9703 48.7612 53L48.7314 52.9703H48.6719V52.9406C48.5825 53.0891 48.523 53.1782 48.523 53.2376C48.4932 53.2673 48.4932 53.3267 48.4932 53.3861C48.4932 53.4158 48.4932 53.505 48.4634 53.6238C48.4336 53.7723 48.4634 53.8317 48.523 53.8317L48.5528 53.802C48.5528 53.9802 48.523 54.0693 48.523 54.0693C48.523 54.0396 48.4932 54.0396 48.4932 54.0396C48.4634 54.0396 48.4336 54.0099 48.4336 53.9505C48.4038 54.1584 48.3443 54.3069 48.3145 54.3663C48.2549 54.4257 48.1954 54.5743 48.1656 54.8119L48.1954 54.7822H48.2549C48.3145 54.7822 48.3443 54.8119 48.3443 54.8713C48.3741 54.8713 48.4038 54.8119 48.4932 54.6931C48.4634 54.8416 48.4038 54.9901 48.3443 55.1683C48.2847 55.3465 48.2251 55.4356 48.1656 55.4951H48.2549C48.1954 55.7624 48.1954 55.8515 48.2251 55.7327C48.2549 55.6436 48.3145 55.4951 48.4038 55.3465C48.4634 55.198 48.523 55.1089 48.523 55.1089C48.523 55.1089 48.4932 55.2871 48.3741 55.703C48.4634 55.7921 48.523 55.9109 48.523 56.0594V57.1287C48.523 57.1881 48.5528 57.2475 48.6123 57.3366C48.6719 57.4257 48.7017 57.4851 48.7612 57.5743C48.8208 57.4851 48.9101 57.4257 49.0591 57.396C49.208 57.3663 49.2973 57.2772 49.3271 57.1287C49.3271 57.0693 49.3271 56.9802 49.3867 56.8614C49.4165 56.7426 49.476 56.6832 49.6249 56.6832C49.6249 56.4752 49.6249 56.3861 49.6547 56.3861C49.6845 56.4158 49.7143 56.4158 49.7441 56.4158C49.7441 56.3267 49.7441 56.2376 49.7739 56.1188C49.7739 56 49.8036 55.8812 49.8036 55.7624C49.8036 55.5545 49.7739 55.4356 49.7739 55.3465C49.7739 55.5842 49.7739 55.7624 49.8036 55.9109C49.6845 55.8812 49.6547 55.9703 49.5952 56.0297ZM48.3443 33.1881C48.3443 33.3663 48.4038 33.4257 48.5825 33.3663C48.6719 33.3069 48.6719 33.2772 48.6123 33.2475C48.523 33.2178 48.4336 33.2178 48.3443 33.1881ZM48.6123 33.8416C48.6123 33.7525 48.5825 33.6931 48.4932 33.6634C48.4038 33.6337 48.3741 33.604 48.3443 33.5743C48.3443 33.6634 48.4336 33.7525 48.6123 33.8416ZM48.791 54.4257C48.791 54.396 48.791 54.3663 48.7612 54.3663C48.7314 54.3663 48.7314 54.3366 48.7314 54.3069C48.791 54.1881 48.8208 54.099 48.8208 54.0396C48.8506 54.0396 48.8506 54.0693 48.8506 54.1287C48.8506 54.1881 48.8208 54.2475 48.8208 54.2772C48.791 54.3069 48.791 54.3663 48.791 54.4257ZM48.9995 33.3663C48.9995 33.3069 48.9697 33.2772 48.9697 33.2475C48.9399 33.2475 48.9101 33.2178 48.8804 33.1881C48.8804 33.3069 48.8804 33.3663 48.9101 33.3663C48.9399 33.396 48.9697 33.396 48.9995 33.3663ZM49.0591 33.7525C48.9995 33.8119 48.9697 33.8713 48.9399 33.9307C48.9101 33.9901 48.9101 34.0198 48.8804 34.0198L49.0591 34.0792C49.0591 34.0198 49.0591 33.9901 49.0293 33.9604C48.9995 33.9604 49.0293 33.9307 49.0888 33.9307H49.1782C49.208 33.9307 49.208 33.9307 49.208 33.901C49.1484 33.8713 49.0888 33.8119 49.0591 33.7525ZM49.2973 54.3366C49.3867 54.4257 49.4165 54.4851 49.4165 54.5149C49.4165 54.6337 49.4165 54.7822 49.4462 54.9604C49.4462 55.1386 49.4462 55.3762 49.3867 55.6139C49.3271 55.6139 49.2973 55.4653 49.2973 55.1386V54.3366ZM49.5058 34.8218C49.5058 34.7327 49.476 34.6733 49.4165 34.5842C49.3867 34.5545 49.3867 34.5248 49.3867 34.495C49.3569 34.5248 49.3569 34.5842 49.3569 34.6139C49.3271 34.703 49.3867 34.7624 49.5058 34.8218ZM49.5952 34.2871C49.5952 34.2277 49.5356 34.1386 49.4165 34.0495C49.476 34.1683 49.5058 34.2574 49.5356 34.3168C49.5356 34.3762 49.5654 34.4356 49.5654 34.5545C49.6249 34.5545 49.6547 34.5545 49.6547 34.5248C49.6845 34.5842 49.7143 34.6436 49.8036 34.7624C49.8632 34.8515 49.9525 35.0594 50.0717 35.3267C50.0419 35.1782 49.9823 35 49.9228 34.8218C49.8334 34.6139 49.7441 34.4356 49.5952 34.2871ZM49.5356 54.1287C49.476 54.1287 49.4462 54.1584 49.4462 54.2178V54.2475H49.4165C49.4462 54.1584 49.4462 54.0693 49.4462 53.9505C49.4165 53.8317 49.476 53.7129 49.5654 53.5941C49.5654 53.6832 49.5952 53.802 49.6249 53.9208C49.6547 54.0693 49.6547 54.1584 49.5952 54.2178C49.5654 54.2178 49.5356 54.1881 49.5356 54.1287ZM50.4291 35.1485C50.3695 35 50.2504 34.703 50.1015 34.2871C49.9228 33.8713 49.7739 33.5743 49.5952 33.4257C49.6249 33.4851 49.6845 33.604 49.7739 33.7822C49.8632 33.9604 49.9526 34.1386 50.0419 34.3168C50.161 34.5248 50.2802 34.7624 50.3397 34.9703L50.4291 35.1485ZM49.6845 35C49.7143 35.0297 49.7441 35.0594 49.7441 35.0891C49.7441 35.1188 49.8036 35.1782 49.8632 35.2376C49.8632 35.0891 49.8036 35 49.6845 35ZM49.7143 35.2376C49.7143 35.2673 49.7143 35.297 49.7441 35.3267C49.7441 35.3564 49.7441 35.3861 49.7739 35.4158V35.3267C49.8036 35.2673 49.7739 35.2376 49.7143 35.2376ZM49.7739 57.2772C49.893 57.2772 49.9525 57.3069 49.9525 57.3663C49.9525 57.4257 49.9228 57.4851 49.893 57.5743C49.8632 57.6634 49.8632 57.7228 49.8632 57.7822C49.7739 57.6931 49.7441 57.604 49.7441 57.5149C49.7441 57.4554 49.7441 57.4257 49.7739 57.396C49.7739 57.3663 49.7739 57.3366 49.7739 57.2772ZM49.8632 35.5347C49.8632 35.5941 49.8632 35.6238 49.8334 35.6535C49.8036 35.6832 49.8036 35.6832 49.8036 35.7129C49.8036 35.7426 49.8036 35.7426 49.8334 35.7426H49.9228V35.802H49.9525C49.9525 35.7426 49.9228 35.7129 49.9228 35.6832C49.9228 35.6535 49.893 35.5941 49.8632 35.5347ZM50.4886 36.2178C50.4886 36.099 50.4291 36.0099 50.3099 35.9505C50.3099 36.099 50.3695 36.1881 50.4886 36.2178ZM50.8758 36.0693C50.8758 36.0099 50.8758 35.9802 50.846 35.9208C50.8163 35.8911 50.7865 35.8317 50.7269 35.6832C50.7567 35.8614 50.7865 35.9802 50.8758 36.0693Z" fill="white"/>
<path d="M69.6093 32.3268C68.6265 32.1782 67.6437 32.3268 66.6906 32.7426C65.7376 33.1584 64.8739 33.7228 64.1591 34.4357C63.4145 35.1485 62.8188 35.9505 62.3721 36.8119C61.9253 37.703 61.7169 38.5347 61.7764 39.3367C61.836 40.4951 62.104 41.7129 62.6104 42.9901C63.1167 44.2673 63.623 45.5743 64.1591 46.8812C64.6952 48.2178 65.1717 49.5248 65.5589 50.8614C65.946 52.198 66.1247 53.505 66.0354 54.7228C65.9758 55.6733 65.7376 56.5941 65.2908 57.4555C64.8441 58.3466 64.2782 59.1188 63.5634 59.7723C62.8486 60.4258 62.0743 60.9604 61.2403 61.3763C60.4064 61.7921 59.5427 61.9703 58.679 61.9703C58.5599 61.9703 58.3812 61.9406 58.1131 61.9406C57.8451 61.9109 57.5473 61.8515 57.2494 61.7921C56.9516 61.7327 56.624 61.6436 56.3262 61.5545C56.0283 61.4357 55.7901 61.3169 55.6114 61.1683C55.4029 61.0495 55.1348 60.8416 54.837 60.5149C54.5392 60.1881 54.2116 59.8317 53.9137 59.4159C53.6159 59 53.3479 58.6139 53.1394 58.2277C52.9309 57.8119 52.8416 57.5149 52.8416 57.2772C52.9011 57.1881 52.9309 57.1287 52.9309 57.0693C52.9309 57.0396 52.9607 57.0099 53.0203 57.0099C53.1692 57.0693 53.2585 57.1287 53.3181 57.2475C53.3479 57.3367 53.4372 57.3664 53.5266 57.3664C53.5861 57.3664 53.6457 57.3664 53.7053 57.3367C53.9137 57.4852 54.0924 57.6337 54.2711 57.7525C54.42 57.8713 54.5987 57.9901 54.8072 58.0792C54.9859 58.198 55.2242 58.2574 55.4922 58.3169C55.7603 58.3763 56.0879 58.406 56.5049 58.406C57.0409 58.406 57.5175 58.2871 57.9642 58.0495C58.3812 57.8119 58.7386 57.4852 59.0066 57.099C59.2747 56.7129 59.4236 56.2376 59.4831 55.703C59.5427 55.1683 59.4534 54.604 59.2449 54.0099C58.9768 53.1782 58.6194 52.2871 58.1429 51.3069C57.6664 50.3565 57.2196 49.3466 56.7729 48.2772C56.2964 47.2376 55.8794 46.1386 55.522 45.0396C55.1348 43.9406 54.9264 42.8416 54.837 41.7723C54.6881 39.901 54.9561 38.1782 55.6412 36.5743C56.3262 34.9703 57.2792 33.5743 58.5599 32.3862C59.8108 31.198 61.2701 30.2772 62.938 29.5644C64.6058 28.8812 66.3034 28.5545 68.0606 28.5545C69.5796 28.5545 70.6518 29.3565 71.3368 30.901C71.4857 31.2574 71.5155 31.5545 71.4559 31.8515C71.3963 32.1188 71.2772 32.3268 71.0985 32.4753C70.9198 32.6238 70.6815 32.7129 70.4433 32.7129C70.205 32.7129 69.8774 32.5644 69.6093 32.3268Z" fill="white"/>
<path d="M73.6299 52.4654C73.9873 52.406 74.2554 52.4654 74.4639 52.6139C74.6426 52.7921 74.7915 53 74.8808 53.2674C74.9702 53.5347 75.0297 53.8317 75.0297 54.1288C75.0297 54.4555 74.9999 54.7228 74.9404 54.9901C74.8808 55.1684 74.7915 55.3763 74.6426 55.6436C74.4936 55.9109 74.3447 56.0892 74.166 56.2377C73.9575 56.3268 73.6895 56.3862 73.4215 56.4456C73.1236 56.4753 72.8258 56.4753 72.528 56.4456C72.2301 56.3862 71.9323 56.3268 71.6643 56.208C71.3962 56.0892 71.1877 55.9109 71.0388 55.6733C70.7708 55.5545 70.5921 55.3763 70.5027 55.1387C70.4134 54.901 70.3836 54.6634 70.4432 54.3961C70.5027 54.1288 70.5623 53.8614 70.7112 53.6238C70.8601 53.3862 71.009 53.1486 71.1877 52.9703C71.5451 52.7327 71.9323 52.6139 72.3195 52.5842C72.7067 52.5248 73.1534 52.4951 73.6299 52.4654Z" fill="white"/>
</svg>
