<svg width="119" height="32" viewBox="0 0 119 32" fill="none" xmlns="http://www.w3.org/2000/svg">
<path d="M39.1013 0H43.4407L47.206 9.6413H47.2904L51.0726 0H55.3107V13.7612H52.3052V4.1537H52.2208L48.3711 13.7612H46.0241L42.1743 4.22123H42.0899V13.7612H39.1013V0Z" fill="#00112C"/>
<path d="M56.442 4.05259H59.7177L61.9296 11.043H62.014L64.209 4.05259H67.282L63.3985 15.1291C63.2297 15.6019 63.044 16.0578 62.8076 16.4799C62.5712 16.902 62.2841 17.2735 61.9465 17.6112C61.6088 17.932 61.2035 18.2022 60.7476 18.3879C60.2917 18.5905 59.7683 18.6749 59.1605 18.6749H57.8435V16.3448H58.4513C59.0254 16.3448 59.4982 16.2266 59.8865 15.9734C60.2749 15.7201 60.5619 15.2642 60.7645 14.6057L61.0516 13.7445H59.9878L56.442 4.03571V4.05259Z" fill="#00112C"/>
<path d="M39 16.3627H45.7201C46.5644 16.3627 47.3242 16.4809 47.9827 16.7004C48.6412 16.9199 49.1984 17.2576 49.6374 17.6629C50.0933 18.0681 50.431 18.5747 50.6674 19.1487C50.9038 19.7228 51.0051 20.3476 51.0051 21.0399C51.0051 21.7321 50.8869 22.3907 50.6674 22.9816C50.431 23.5726 50.0933 24.0792 49.6374 24.5182C49.1815 24.9572 48.6243 25.278 47.9827 25.5144C47.3411 25.7508 46.5813 25.8858 45.7201 25.8858H42.1406V31.5761H39V16.3627ZM42.1406 18.811V23.4375H45.298C46.1254 23.4375 46.7501 23.218 47.1553 22.7959C47.5775 22.3738 47.7801 21.7997 47.7801 21.1074C47.7801 20.4151 47.5775 19.841 47.1553 19.4358C46.7332 19.0306 46.1085 18.811 45.298 18.811H42.1406Z" fill="#00112C"/>
<path d="M26 0.000244141V7.00024H13V0.000244141H26Z" fill="#00112C"/>
<path d="M26 12.0002V19.0002H0V12.0002H26Z" fill="#00112C"/>
<path d="M26 24.0002V31.0002H13V24.0002H26Z" fill="#00112C"/>
<path d="M56.442 28.9581C56.442 28.0463 56.7121 27.354 57.2356 26.8644C57.7759 26.3747 58.6032 26.0539 59.7514 25.9188L61.71 25.6318C62.2166 25.5642 62.5374 25.4798 62.7062 25.3954C62.8751 25.311 62.9426 25.1083 62.9426 24.8213C62.9426 24.4667 62.8244 24.1628 62.5711 23.8757C62.3179 23.6056 61.9126 23.4536 61.3386 23.4536C60.7645 23.4536 60.3424 23.5887 60.0553 23.842C59.7683 24.0953 59.6163 24.4498 59.5657 24.9226H56.7459C56.7797 24.3316 56.9316 23.8082 57.1849 23.3692C57.4382 22.9302 57.759 22.5756 58.1642 22.2886C58.5695 22.0015 59.0422 21.7989 59.5825 21.6469C60.1229 21.5119 60.6969 21.4274 61.3217 21.4274C64.3947 21.4274 65.9481 22.6431 65.9481 25.0746V31.5584H63.0777V30.1063H62.9933C62.5543 31.1869 61.4736 31.7272 59.7514 31.7272C58.6201 31.7272 57.7759 31.474 57.2356 30.9843C56.6952 30.4778 56.4082 29.8024 56.4082 28.9581H56.442ZM62.9595 26.7968C62.7738 27.0501 62.4529 27.2021 62.0308 27.2696L60.68 27.4891C60.241 27.5567 59.9033 27.6917 59.7007 27.8775C59.4981 28.0632 59.3968 28.3165 59.3968 28.6204C59.3968 28.9919 59.515 29.262 59.7345 29.4478C59.9709 29.6335 60.2748 29.7179 60.68 29.7179C61.2879 29.7179 61.8113 29.5491 62.2672 29.1945C62.7231 28.8399 62.9426 28.3165 62.9426 27.5904V26.7968H62.9595Z" fill="#00112C"/>
<path d="M68.6834 23.8747H66.826V21.6797H68.6834V18.6741H71.7057V21.6797H74.0696V23.8747H71.7057V28.0622C71.7057 28.4505 71.7902 28.7376 71.9759 28.9233C72.1448 29.109 72.4824 29.1935 72.9721 29.1935H74.0865V31.5573H72.6006C71.8915 31.5573 71.2836 31.4898 70.7771 31.3716C70.2705 31.2534 69.8653 31.0508 69.5614 30.7806C69.2575 30.5105 69.0211 30.1559 68.886 29.7169C68.7509 29.2779 68.6834 28.7376 68.6834 28.1128V23.8578V23.8747Z" fill="#00112C"/>
<path d="M76.9569 23.8756H75.0996V21.6806H76.9569V20.4987C76.9569 19.8739 77.0245 19.3336 77.1764 18.8608C77.3284 18.388 77.5648 17.9997 77.9025 17.6789C78.2402 17.3581 78.6792 17.1217 79.2195 16.9528C79.7598 16.784 80.4183 16.7164 81.2119 16.7164H82.512V18.979H81.4652C80.9249 18.979 80.5365 19.0972 80.317 19.3336C80.0975 19.57 79.9793 19.9752 79.9793 20.5662V21.6637H82.1912V23.8588H79.9793V31.5583H76.9569V23.8588V23.8756Z" fill="#00112C"/>
<path d="M82.6978 26.6279C82.6978 25.8005 82.8328 25.0745 83.103 24.4328C83.3731 23.7912 83.7446 23.2509 84.2343 22.795C84.7239 22.356 85.298 22.0183 85.9565 21.7819C86.615 21.5455 87.3411 21.4442 88.1178 21.4442C88.8945 21.4442 89.6712 21.5624 90.3297 21.7819C90.9882 22.0183 91.5623 22.3391 92.035 22.7781C92.5078 23.2171 92.8793 23.7575 93.1325 24.416C93.4027 25.0576 93.5209 25.8005 93.5209 26.6279C93.5209 27.4553 93.3858 28.1813 93.1157 28.8229C92.8455 29.4646 92.474 30.0049 91.9844 30.4608C91.5116 30.8998 90.9375 31.2375 90.279 31.4739C89.6205 31.7103 88.8945 31.8116 88.1178 31.8116C87.3411 31.8116 86.5644 31.6934 85.9059 31.4739C85.2474 31.2375 84.6733 30.9167 84.2005 30.4777C83.7277 30.0386 83.3563 29.4983 83.0861 28.8567C82.8159 28.2151 82.6978 27.4721 82.6978 26.6448V26.6279ZM85.8046 26.6279C85.8046 27.5566 86.0072 28.2826 86.4293 28.8229C86.8345 29.3464 87.4086 29.6165 88.1347 29.6165C88.8607 29.6165 89.4348 29.3464 89.84 28.8229C90.2452 28.2995 90.4647 27.5734 90.4647 26.6279C90.4647 25.6823 90.2621 24.9563 89.84 24.4328C89.4348 23.9263 88.8607 23.6561 88.1347 23.6561C87.4086 23.6561 86.8345 23.9094 86.4293 24.4328C86.0241 24.9563 85.8046 25.6823 85.8046 26.611V26.6279Z" fill="#00112C"/>
<path d="M94.7704 21.6807H97.6408V23.1159H97.7253C97.9616 22.6094 98.2993 22.1873 98.7215 21.8833C99.1436 21.5794 99.667 21.4274 100.326 21.4274C100.528 21.4274 100.748 21.4443 100.967 21.495C101.204 21.5456 101.44 21.6469 101.693 21.8327L101.17 24.3992C100.748 24.1797 100.342 24.0784 99.954 24.0784C99.2111 24.0784 98.6539 24.3485 98.2993 24.9057C97.9448 25.4629 97.759 26.1552 97.759 26.9995V31.5584H94.7535V21.6638L94.7704 21.6807Z" fill="#00112C"/>
<path d="M102.706 21.6807H105.577V23.0822H105.661C105.948 22.5418 106.336 22.1366 106.86 21.8496C107.383 21.5625 107.974 21.4274 108.666 21.4274C109.393 21.4274 110.051 21.5794 110.625 21.8664C111.199 22.1535 111.638 22.6431 111.959 23.3354C112.33 22.6094 112.82 22.1028 113.428 21.8327C114.036 21.5625 114.661 21.4274 115.302 21.4274C115.809 21.4274 116.282 21.495 116.737 21.6469C117.193 21.7989 117.582 22.0184 117.919 22.3392C118.257 22.66 118.51 23.0822 118.713 23.6056C118.916 24.129 119 24.7706 119 25.5136V31.5584H115.978V25.8006C115.978 25.007 115.826 24.4498 115.539 24.1459C115.235 23.842 114.846 23.69 114.34 23.69C113.766 23.69 113.293 23.9095 112.921 24.3316C112.55 24.7706 112.347 25.4123 112.347 26.2565V31.5415H109.342V25.7837C109.342 24.9902 109.19 24.4329 108.886 24.129C108.582 23.8251 108.194 23.6731 107.704 23.6731C107.13 23.6731 106.657 23.8926 106.286 24.3148C105.914 24.7538 105.712 25.3954 105.712 26.2396V31.5246H102.706V21.63V21.6807Z" fill="#00112C"/>
<path d="M52.3052 16.3627H55.3107V31.5761H52.3052V16.3627Z" fill="#00112C"/>
</svg>
