<svg fill="none" height="43" viewBox="0 0 91 43" width="91" xmlns="http://www.w3.org/2000/svg"><g fill="#000"><path d="m27.038 6.61787c.5423 1.34601.8522 2.84157.8522 4.48673 0 .8973-.0775 1.832-.1937 2.7668-.1549.9721-.2711 1.9068-.4261 2.8789-.1549.9721-.3099 1.9442-.4261 2.879-.1549.9721-.1936 1.9068-.1936 2.8415-.0775 0-.1163-.0373-.1163-.1121v-.1122c-.0387.0374-.0387.0374-.0387.0748s-.0387.0374-.0775.0374c0 .0748 0 .2617-.0387.5234-.0387.2618-.0775.4113-.1162.4113.0775.187.1162.2617.1162.2617l-.0775.1496c0 .0748.0388.1122.0775.1495-.0387 0-.0387 0-.0775.0374-.0387.0374-.0387.0748-.0387.1496v.0374.0374c.0387 0 .0387 0 .0387-.0374s0-.0748.0388-.0748c-.0775.2243-.1163.4861-.1163.7852s-.0387.5608-.0387.8225c0-.3739-.0775-.5982-.1937-.7104l-.0774.0374c0 .0374 0 .0748.0387.1122.0387.0748.0387.1122.0387.1496h-.0387c.0387.0373.0775.0747.0775.1121l-.155-.1121c0 .1495 0 .2243-.0387.2243 0-.0374 0-.0748-.0388-.187-.0387-.1121-.1162-.1495-.1936-.1495.0387-.0374.0774-.0748.0774-.1496 0-.0747-.0387-.1121-.1549-.1495 0 .0374 0 .1121.0387.1869.0388.0748.0388.187.0388.2991-.0388-.0374-.0775-.1121-.1162-.1495-.0388-.0374-.0775-.1122-.1163-.2244v.0374.0374.187s-.0387-.0748-.0774-.2244c-.0775.0374-.1162.0748-.1162.1496v.1495.1496c-.0388 0-.0388 0-.0388-.0374v-.0374c-.0387.0374-.0387.1122 0 .1496.0388.0748.0388.1121.0388.1495-.0775-.1121-.1162-.2617-.1937-.486-.0388-.0748-.0387-.187-.0775-.2991 0 .0374 0 .0374-.0387 0-.0388 0-.0388 0-.0775 0 .0387.1121.0775.1869.0387.2243 0 .0374-.0774 0-.1936-.1122 0 .0748 0 .1122.0387.1496s.0387.0748.0387.1495c-.0387-.0373-.0387-.0747-.0774-.1121-.0388-.0374-.0388-.0748-.0388-.187-.0387 0-.0387 0 0 .0374v.0374c-.0775-.0748-.1162-.1122-.1162-.1869 0-.0374-.0387-.0748-.0387-.0748l-.0775.0748c-.0387 0-.0387-.0374-.0387-.0748-.0388.0748-.0388.1869-.0388.2617v.187c-.0387-.0748-.0387-.1496-.0774-.2244-.0388-.0374-.0775-.1121-.1163-.2243 0 .0748.0388.1869.0775.2617.0388.0748.0775.187.0775.2991-.0775-.0374-.155-.0748-.155-.1495l-.0387.2617c0 .0374 0 .0748.0387.0748.0388 0 .0388.0374.0388.0374 0 .0373 0 .0373-.0388.0373-.1162-.0373-.1936-.1495-.2711-.2617-.0775-.1495-.1162-.2617-.1162-.3739v.187.1495c-.1162 0-.155.1122-.155.3365.0388.2244.0388.3739.1162.4861-.0387-.0748-.1162-.1496-.1549-.2243-.0775-.0748-.1162-.0748-.1162 0v.0373.0374c-.2712-.2617-.4261-.486-.4648-.7477-.0775-.2618-.0775-.5235-.0775-.8226 0-.3739 0-.7104.0387-1.0469.0388-.2991.0775-.7104.0775-1.2338-.0775.0747-.1162.1121-.0775.1869v.2243c-.0387-.0374-.0387-.0374-.0775 0-.0387 0-.0387 0-.0387 0 0-.2991.0387-.7104.0775-1.1964.0387-.5235.1162-1.0469.1549-1.5704.0775-.5234.155-1.0095.2324-1.4581.0775-.4487.1937-.7478.2712-.8974-.0387.187-.0775.4487-.1162.673-.0387.2618-.0775.4861-.1162.7104.0387 0 .0387 0 .0387-.0374-.0387-.0374 0-.0374.0388-.0374v.1496.1122.0374.0747.0748.1122c.0387-.0748.0774-.2243.1549-.4113.0387-.2243.0775-.4113.1162-.5982v.0374.0374l-.0387.0373c0-.0747 0-.1495.0387-.2617.0387-.1121.0387-.2243.0775-.3365.0387-.1121.0387-.2243.0775-.2991.0387-.0748.0387-.1122 0-.1122v-.1121c0-.1122 0-.2617 0-.4113 0-.187.0387-.3365.0387-.4861.0387-.1869.0387-.3739.1162-.5234 0-.0748 0-.1496.0387-.2243.0388-.0748.0388-.1496.0775-.2244.1162-.6356.1937-1.0469.2324-1.2712.0388-.2243.0775-.3739.0775-.4487s.0387-.1121.0387-.1869c0-.0374.0388-.2244.0775-.5235-.0775.1496-.1162.2618-.1162.3365 0 .0748-.0775.2244-.1549.3739.0387-.5234.1162-1.0469.2324-1.4955.1162-.4861.1937-.8974.2324-1.2713-.0387 0-.0387-.0374-.0387-.1121 0-.0748 0-.1122 0-.187v-.5608c0-.0748 0-.18697 0-.22436 0-.07477 0-.14955 0-.18694v-.26173l-.0388-.03738c-.0387.03738-.0775.11216-.0775.18694s-.0387.18695-.0387.22434c.0387-.03739.0775-.07478.0387-.07478 0 0 0-.03739.0388-.07478v.22433c0 .18695-.0388.41126-.0775.67296-.0387.2618-.1162.4861-.1937.6731 0-.187 0-.3739 0-.5983 0-.2243.0388-.4113.1162-.56081 0-.03739-.0387-.03739-.0774-.11217.0387 0 .0387-.03739.0387-.07478-.0775-.48605-.0775-.97211-.0775-1.53295.0388-.56084-.0774-1.04689-.3099-1.49556-.3873.18694-.8134.59822-1.317 1.23384-.4648.63561-.9297 1.30862-1.3945 2.05643-.4261.7477-.8522 1.4955-1.2008 2.2433-.3487.7478-.6198 1.346-.7748 1.7947-.0387-.0374-.0774-.0374-.1162-.0374-.0774 0-.1162 0-.1162-.0374 0 .0374 0 .0748.0388.1122.0387.0374.0387.1121.0387.1869v.0374c-.155.4487-.3099 1.0469-.5423 1.8321-.1937.7478-.4261 1.5329-.6198 2.3555-.1937.7852-.3874 1.5329-.5423 2.206-.155.673-.2712 1.159-.3099 1.4581v.0748h.0387c-.0387.0374-.0774.0748-.1162.1122-.0775.0374-.1162.1121-.1549.2243-.0775-.0748-.0775-.1122-.0775-.1122 0 .0748 0 .1496.0387.1496-.0774.0374-.1549.0748-.1549.1122-.0387 0-.0387-.0374-.0775-.1122-.0775.0374-.1162.0748-.1549.1496-.0388.0373-.0775.0747-.1162.0747-.0388-.1869-.1162-.2617-.1937-.2617-.0388.0748-.0775.1122-.1162.1496-.0388.0374-.0775.1121-.0775.1869 0-.0374 0-.0374-.0387-.0374-.0388 0-.0388 0-.0388-.0374-.0774.0748-.1162.1122-.1162.1496 0 .0748 0 .1122.0388.1495-.1163.0374-.1937.0748-.2325.187-.1162 0-.1549-.0374-.1549-.0748s0-.1122-.0387-.2243c-.155.1495-.2325.2243-.2325.2617s-.1162.0374-.3099.0374c-.1162 0-.1936-.0374-.2324-.1496-.0774 0-.1937 0-.3873.0374-.1937.0374-.4261.0374-.6586.0748-.2324.0374-.4648.0748-.6972.0748-.2324.0374-.3874.0374-.4648.0374-.1163 0-.1937-.0374-.2325-.0748-.0387 0-.0387 0-.0387.0374s-.0387.0374-.0775.0374c-.0387 0-.1162 0-.1937 0-.0774 0-.1549-.0374-.1936-.0748 0-.0374 0-.0748.0387-.1122s.0387-.0374.0387-.0748c0-.0747-.0387-.1121-.0774-.1495-.0775-.0374-.0775-.0748-.0775-.0748.0775.0374.1162 0 .0775-.0748 0-.0747 0-.1495.0387-.1869.0387 0 .0387 0 .0387.0374-.0387.0374 0 .0374.0388.0374 0-.0748 0-.1496 0-.2244s0-.1121 0-.1495c0-.2244.0387-.673.0774-1.346.0388-.673.1163-1.4582.2325-2.3929.0774-.9348.1936-1.9069.2711-2.9912.0775-1.0469.1937-2.0938.2712-3.1033.0774-1.0095.1549-1.9442.2324-2.80414.0387-.85995.0775-1.53296.0775-2.01902 0-.71039-.0388-1.38339-.1162-2.01901-.0775-.63561-.2325-1.27123-.5036-1.83206-.6198.78517-1.1621 1.60773-1.627 2.50507-.4648.89733-.92962 1.75728-1.31699 2.61723-1.04588 2.24333-1.93682 4.59883-2.63407 7.02913-.736 2.4303-1.23957 5.1223-1.54946 8.0387 0 .2243 0 .4113.03874.5234.03873.1496.03873.2991.03873.5235 0 .2617-.03873.4486-.15494.5608s-.23242.187-.34863.187c-.11621.0373-.23242.0747-.34863.0747-.11621.0374-.15494.0748-.19368.187v.0748.0747c-.07747-.0374-.11621-.0747-.15495-.1121-.03873-.0374-.07747-.0374-.15494-.0374-.07748.0374-.19368.0748-.30989.1121-.11621.0374-.15495.0374-.19369.0748-.03873 0-.19368 0-.46483-.0374-.27116-.0374-.4261-.0374-.50358-.0374-.11621 0-.19368.0374-.19368.1496s-.07747.1496-.19368.1496c-.03874 0-.15495-.0374-.27116-.0748-.03873.0374-.07747.0374-.07747.0748 0 .0373-.03873.0373-.07747.0373s-.07747 0-.11621-.0373c-.03874.0373-.15495.1121-.30989.1869-.15495.0748-.348629.1496-.542311.1496-.077473 0-.116209-.0748-.154946-.2618-.038736-.1869-.077472-.3739-.116209-.6356-.038736-.2617-.038736-.5234-.038736-.8225s0-.5609 0-.8226c0-3.8137-.077473-7.6274-.2711552-11.4037 0-3.62671-.0774728-7.51518-.0774728-11.51581 0-.03739 0-.11217.0387364-.18695 0-.03739.0774726-.11217.1549456-.18695 0-.03738.116209-.074773.309891-.186941.193682-.112167.426101-.261723.697257-.373891.30989-.112167.58104-.224334.89094-.336502.27115-.1121669.54231-.149556.73599-.149556.38736 0 .69725.112167.92967.299113.23242.186945.4261.486058.54231.822557.11621.3365.19368.7104.23242 1.15907.03874.41128.07747.85994.07747 1.27122 0 .52345-.03873 1.23384-.07747 2.13118-.07747.85995-.11621 1.75729-.19368 2.65463s-.15495 1.71993-.27116 2.50503c-.07747.7478-.15494 1.3087-.19368 1.6452.50357-1.2713 1.00715-2.50511 1.54946-3.77634.50357-1.27123 1.12335-2.3929 1.78187-3.40241.69726-1.0095 1.51072-1.83206 2.4404-2.46768.92963-.673 2.13053-.97212 3.52503-.97212h.3486.3486-.0387c0-.03738 0-.03738.0387-.03738.0775.07477.1937.11216.3487.11216.1549 0 .2711.03739.3873.14956l.0388-.03739c.0387 0 .0774.03739.1936.14956 0-.03739-.0387-.03739-.1162-.03739.0388.03739.0775.07478.0775.03739v.03739c0 .03739-.0387.07477-.0775.07477-.0387 0-.0774 0-.1162-.03738-.0387-.03739-.0774-.07478-.1162-.07478.0388.03739.0775.07478.0775.11216 0 .03739.0387.07478.1549.14956 0-.03739 0-.03739.0388-.03739.0387 0 .0387-.03739.0387-.03739.0387 0 .0387 0 .0387.03739s0 .03739-.0387.07478c.0387-.03739.0387-.03739.1162-.03739.0388 0 .155.11217.3486.3365.1937.22434.3099.3365.4261.41128 0-.07478.0388-.11216.0775-.18694.0388.11216.0775.26172.1162.41128.0388.14955.1162.3365.2324.48606.0775.14955.1937.3365.2712.44866.0775.14956.1937.22434.2712.22434 0-.03739-.0388-.07478-.0775-.07478-.0388 0-.0775-.03739-.0775-.07478.0387 0 .0387 0 .0387-.03739-.1162-.14955-.2324-.26172-.3098-.44867-.1937-.29911-.3099-.59822-.3099-.85994.7747 1.0095 1.317 2.13117 1.6269 3.32763.3099 1.19645.5036 2.46768.5423 3.81367.3874-.52343.7747-1.08427 1.2396-1.71989.4648-.63561.9684-1.23384 1.5107-1.79467.5423-.56084 1.1621-1.00951 1.8206-1.3834s1.3558-.56084 2.1305-.56084c.2712 0 .5423.07478.7747.22434.2325.14956.4261.3365.6198.52345.1937.22433.3486.44867.4649.673.1936.11217.3098.29911.3873.41128zm-25.99212 7.32823v-.0747c0-.0374 0-.0374.03874-.0748-.07747 0-.11621.0374-.11621.0748 0 .0373.03874.0747.07747.0747zm.50358 5.9075c.03873.0748.03873.1122.03873.187 0 .0373-.03873.1495-.03873.2617 0 .1495 0 .2243.03873.2243l.11621-1.0469c.03874-.0374.07747-.0374.11621-.1121.03874-.0748.03874-.1496 0-.1496.07747-.1869.15495-.2617.15495-.2617s0-.0374 0-.0748c0-.0748 0-.187 0-.3739s.03873-.3739.03873-.5608c.03874-.187.03874-.3739.03874-.5609 0-.1869 0-.2617 0-.3365 0-.0374 0-.0374 0 .0374s-.03874.1122-.03874.1122c-.03873 0-.03873 0-.03873-.0374v-.1122c0-.0374 0-.0374.03873-.0374 0-.0747.03874-.1495.07748-.1869-.03874-.0374-.07748-.0748-.07748-.1496 0-.0374 0-.0374.03874-.1121.03874-.0374.03874-.0748 0-.1122l-.07747.0748v.1495c0 .1122 0 .1496 0 .1122s-.03874-.0748-.03874-.1496v.1122.0748.4861c0 .1869-.03874.3365-.03874.5234 0 .1496-.03873.2991-.03873.4113v.1495-.8973c0-.0374 0-.0748 0-.1122s0-.0374 0-.0747v.6356.5608c-.03874 0-.03874 0-.03874-.0374 0-.1122 0-.2243 0-.2991s0-.1869 0-.2991l-.07747.1122c.03873-.1496.03873-.3365.03873-.5235 0-.1869 0-.3739 0-.5608 0-.1122 0-.2618 0-.5235 0-.2243-.03873-.4486-.03873-.673 0-.2243-.03874-.4113-.03874-.5608-.03873-.1496-.03873-.2617-.07747-.2617 0 .0374-.03874.1121-.07747.2243v.1496c0 .0373 0 .0747.03873.1495 0-.1122 0-.1869.03874-.1869.03874.0374.03874.0747.03874.1121 0 .187 0 .3365-.03874.4861-.03874.1495-.03874.2991-.03874.5234.03874.2618.03874.3739 0 .3365 0-.0374 0 0 0 .0374s0 .0748-.03873.1122c-.03874.0374-.03874-.0374-.03874-.1496 0-.0747 0-.1869 0-.2991 0-.1121 0-.3739 0-.8225l-.11621.7104c-.03874-.0374-.03874-.1122-.03874-.2244 0-.1121 0-.2243 0-.3365 0-.1121 0-.2243 0-.3365-.03873 0-.07747-.0374-.1162-.1495-.03874-.1122-.03874-.1496-.03874-.0748 0 .0374 0 .1122-.03874.2243-.03873.1122-.03873.187 0 .2244.03874.0373.03874 0 .03874 0 0-.0374.03874-.0374.03874-.0374l-.07748.1495v.0374c.03874 0 .03874.0374 0 .0748-.03873.0374-.03873.0748-.03873.1495 0 .1122 0 .1496 0 .1122s0 .0374 0 .187c0 .0373 0 .0747.03873.1121 0 .0374.03874.0748.03874.0748-.03874 0-.03874 0-.07747-.0374 0-.0374-.03874-.0374-.03874-.0374v.1496c.03874 0 .03874 0 .07747-.0374v.0374c-.03873.0374-.07747.1121-.07747.2243v.2617.4861.2991.3365c0 .1122 0 .2991.03874.5235-.03874.1869-.03874.3365 0 .3739 0 .0373.03873.1495.03873.2991 0 .1121.07748.1869.27116.2243 0 .1122 0 .1869-.03874.1869s0 .0748.07747.1496c0-.0374.03874-.0374.07748-.0374zm-.38737-5.7205c0 .0748 0 .1121-.03873.1495.03873.0374.07747.0748.07747.187v.0748c0-.0374 0-.0374.03874-.0374.03873 0 .03873-.0374.03873-.0748 0-.187-.03873-.3365-.11621-.4113zm.03874.8973c0-.0748 0-.1495 0-.2243s0-.1496-.03874-.187c0 .0374 0 .1122-.03873.2244 0 .1121.03873.1869.07747.1869zm0 2.8042v.3739.3739c0-.0374 0-.0748 0-.1122s0-.0748 0-.1122c0-.0747 0-.1869 0-.2991-.03874-.1121-.03874-.1869 0-.2243zm0-1.1965c.03874.0374.03874.1122.03874.187v.2243.2244c0 .0747 0 .1121-.03874.2243-.03874.0374-.03874 0-.03874-.1496 0-.1495 0-.2617 0-.4486 0-.0374 0-.1122 0-.2244 0-.1121.03874-.1121.03874-.0374zm.03874 2.7295c-.03874 0-.07748-.0374-.07748-.1496 0-.0374 0-.0748 0-.1122s0-.0374 0-.0747c.07748 0 .07748.0373.07748.0373zm.03873-5.8701c-.03873 0-.07747.0374-.07747.0747 0 .0374.03874.0748.07747.0748zm.03874.4486s-.03874-.0374 0 0l-.03874-.1495c-.03873.0374-.03873.0748-.03873.1121 0 .0374.03873.0748.07747.0374zm0 .5235c-.03874.1121-.07747.2617-.07747.4487 0 .1869 0 .2991.03873.4112.03874-.1495.03874-.2991 0-.4112 0-.1122.03874-.2618.03874-.4487zm.03873 3.2902v.2244.2991c-.03873-.0748-.07747-.187-.07747-.2244.03874-.1121.03874-.2243.07747-.2991zm0 .9347c.03874.0374.03874.0374.03874.0748s0 .0748.03874.1496c.03873.0374.03873.0748 0 .1122l-.03874.1495c-.03874-.0374-.03874-.1869-.03874-.4861zm.15495-1.3833c-.03874 0-.07747 0-.07747-.0374s0-.0374 0-.0748 0-.0748 0-.0748c0 .0374 0 .0374.03873.0374v.0374.0748zm.46484.4486c0 .1496 0 .3365-.03874.5235-.03874.1869-.03874.3739-.07747.5608 0-.1495 0-.3365 0-.5608.03873-.2244.03873-.3739.11621-.5235zm.03873-1.1964c.03874-.0374.03874-.0748.03874-.187-.03874.0374-.07747.0748-.07747.1496zm.19369 1.1964c.07747-.1121.15494-.2617.19368-.4486.03873-.187.03873-.3739.03873-.5609-.03873 0-.07747-.1495-.07747-.4487v-1.3086s-.03874-.0374-.07747-.0374c-.03874.4487-.03874.86-.07747 1.2339-.03874.2991-.03874.6356-.03874.9347.03874.3365.03874.5235.03874.6356zm.07747.0748-.03874.0748v.0748.0747c0 .0374 0 .0374.03874.0374-.03874.0374-.07747.1122-.07747.187 0 .0747 0 .1495.03873.1869 0-.1122 0-.1869 0-.1869 0-.0374 0-.0374 0-.1122 0 .0374 0 .0374.03874.0374zm0-.7478c.03873 0 .03873 0 .03873.0374-.03873.0374-.03873.0748 0 .0748-.03873.0374-.03873.0374-.07747.0374-.03873 0-.03873 0-.03873-.0374.03873-.0374.03873-.0748.07747-.1122zm.07747-.0748c-.03874 0-.07747-.0373-.07747-.0747s0-.0748 0-.1122c.03873.0374.07747.0748.07747.1869zm.03874-.4112c.07747-.1496.11621-.3365.07747-.5983 0-.2243 0-.3365 0-.2617 0 .1496 0 .2617-.03874.4113-.03873.1495-.03873.2991-.03873.4487zm11.81464-14.58179c.0387.03739.0387.07478.0774.07478.0388 0 .0388.03739.1162.07478-.0387-.14956-.1549-.18695-.3486-.18695 0 .03739.0388.03739.155.03739zm.581.52345c0 .07478.0387.11217.1162.11217v-.07478c0 .03739-.0387 0-.1162-.03739zm.155.14956v.07477c.0387 0 .0387 0 .0774-.03739l-.0774-.03738c0 .03738 0 .03738 0 0zm.1549 0c0 .07477.0387.14955.1549.14955-.0387-.11217-.0774-.14955-.1549-.14955zm.0387-.3739v-.07477l.0388-.03739c.0387 0 .0387 0 .0387.03739s.0387.03739.1162.03739l-.0387.03738v.07478s.0387.03739.0387.07478c-.0387 0-.0775-.03739-.1549-.11217 0 .03739-.0388.03739-.0388-.03739zm.3487.3739-.0775-.03739c-.0387 0-.0387 0-.0387-.03739s0-.03739 0-.03739 0 0 0-.03739c0 .03739 0 .03739.0387.03739.0775 0 .0775.03739.0775.11217zm7.4761 4.67363c.1162-.11216.2711-.22433.4261-.3365.1549-.11217.3099-.22433.3486-.3365-.1549 0-.2324 0-.2711.03739 0 .03739 0 0 .0387-.14956 0-.03739-.0387 0-.1549.11217-.0775.07478-.155.03739-.155-.14956 0-.03739 0-.03739 0-.03739s0-.03739 0-.07477c-.0775.03738-.1549.11216-.2711.22433-.1163.11217-.1937.11217-.2325.03739l-.1549.07478c-.0775.03739-.1162.11216-.1162.18694h.0387c0 .03739-.0775.11217-.2324.22434-.1549.11216-.2712.22433-.3099.3365v-.03739c-.3874.3365-.736.74778-1.0846 1.27123s-.5811 1.0095-.6973 1.45815c.0775-.0374.1162-.0748.155-.1495.0387-.0374.0775-.07481.0775-.07481.0387 0 .0387 0 .0387.03741 0 .0374 0 .0748.0387.1495-.0387 0-.0774.0748-.1162.187-.0387.1495-.1162.2243-.2324.2991.0387.0374.0775.0748.0775.0374 0 .0374-.0388.1495-.155.2991s-.2324.3365-.3486.5608c-.1162.2244-.2324.4861-.3486.7478s-.1937.5235-.1937.8226c.0775-.0748.1162-.1496.1549-.187.0388-.0374.0388-.0374.1162-.1121-.0387.1869-.1162.3739-.1549.5234-.0775.187-.0775.2991-.0775.3739.3099-.7478.5423-1.2712.6973-1.533.1549-.2617.1937-.4112.1937-.4486 0-.1496.0774-.2991.2324-.5235.1549-.1869.2324-.3739.2324-.5608.1549-.2617.3486-.5235.5423-.85996.1937-.3365.3874-.63561.6198-.97211.1937-.29912.4261-.59823.6972-.89734.2325-.26172.5036-.52345.736-.673-.0387 0-.0774 0-.1549 0 .0775.11216.0387.11216 0 .11216zm-3.0602 4.67365c-.0387-.0374-.0387-.1122 0-.187.0388-.0747.0775-.1495.155-.1869-.0388.0748-.0388.1496-.0775.1869-.0775.1122-.0775.1496-.0775.187zm.6973-3.77631c-.0388.07478-.1162.14956-.155.22434-.0774.07477-.0774.14955-.0774.22433.0387-.07478.0774-.14956.1162-.22433.0387-.11217.0774-.18695.1162-.22434zm.2324-.3365c0 .03739 0 .03739-.0387.07478-.0388.03739-.0388.03739-.0388.07478 0 .03738 0 .03738.0388.03738 0-.03738 0-.03738.0387-.07477.0387 0 .0387-.03739 0-.11217zm.4261 1.04689c0 .11217-.0387.26173-.155.41128-.0774.14956-.1936.29912-.3098.33651.0387-.14956.0774-.22434.1549-.29912.0387-.03739.1549-.18694.3099-.44867zm-.0775-.07477c-.0387.03738-.0775.11216-.1549.22433-.0775.11217-.1162.14956-.1937.18695.0387-.07478.0775-.14956.1162-.22434.1162-.07478.1549-.14956.2324-.18694zm-.0775.85995c.0388-.18695.1163-.33651.2325-.44867 0 .03738-.0388.11216-.0775.18694-.0387.11217-.0775.18695-.155.26173zm.1937-1.49557c-.0387-.03739-.0774-.07478-.0387-.07478 0 0 0-.03739-.0387-.03739v.11217c-.0388-.03739 0 0 .0774 0zm.3874.63562c0 .03738 0 .11216-.0387.18694-.0388.07478-.0775.14956-.155.14956-.0387-.07478 0-.11217.0387-.14956.0388-.03739.1163-.11217.155-.18694zm.0387-.41128c0 .07477-.0387.14955-.0774.18694-.0388.03739-.0775.07478-.155.14956.0387-.07478.0387-.11217.0775-.14956.0387-.03739.0387-.11217.0387-.18694zm.0388-2.39291c-.0388.03739-.0775.07478-.1162.07478-.0388 0-.0775.03739-.1163.07478.0388-.03739.1163-.03739.155-.07478.0775 0 .0775-.03739.0775-.07478zm.3873 2.0564c.0388.03739 0 .11217-.0387.18695s-.1162.14956-.1937.26172c-.0775.07478-.1549.14956-.1937.22434-.0774.07478-.1162.07478-.1549.03739.0775-.14956.1937-.26173.2711-.33651.155-.11216.2325-.26172.3099-.37389zm-.3873-.59822c.1162-.14956.2324-.26173.3486-.3365.1162-.07478.1937-.18695.3099-.26173-.1162.03739-.2324.11217-.3874.26173-.1937.14955-.2711.26172-.2711.3365zm.3099.52345c0 .07477-.0388.14955-.155.18694l-.0387-.03739c0-.03739.0774-.07478.1937-.14955zm-.1163-1.15907c.155 0 .3487-.11216.5036-.29911.1937-.18694.3486-.37389.4649-.48606-.2712.14956-.5424.29911-.7748.52345-.0774.03739-.1162.07478-.1549.14956zm.155-.48605c-.0387-.03739-.0387-.03739-.0775-.03739-.0387 0-.0775.03738-.0775.07477h.0388c.0387-.03739.0387-.03738.1162-.03738zm-.155 2.50506c.0388-.03738.0775-.07477.0775-.07477s0-.03739.0388-.03739c-.0775.03739-.1163.07478-.1163.11216zm.3874-2.7294c-.1162 0-.1937.03739-.1937.07478s0 .03739.0388.03739c0-.03739.0387-.07478.0774-.03739.0388-.03739.0775-.03739.0775-.07478zm-.1937 1.86946c.0388-.03739.0775-.07478.1937-.14956 0 .03739-.0387.03739-.0775.07478 0 .07478-.0387.07478-.1162.07478zm.3099-2.01902c0 .03739 0 .07478-.0387.07478-.0388 0-.0388 0-.0388.03739v.03739l.0388-.03739c.0387 0 .0387-.03739.0387-.11217zm-.0775 1.75729c.0775-.07478.1163-.14955.1937-.22433.0388-.03739.155-.11217.2712-.14956-.0775.07478-.1937.18695-.2712.26172-.0774.07478-.1549.11217-.1937.11217zm.4649-.93473c0 .11217-.0775.14956-.1937.14956zm.2324-.48605c0-.07478 0-.11217-.0387-.11217-.0388.03739-.1162.11217-.1937.14956-.0775.07477-.155.11216-.155.18694.0775-.11217.2325-.18694.3874-.22433zm-.2324.59822-.0775.14956c-.0387 0-.0387 0-.0775-.03739l.0388-.03739c.0774-.03739.1162-.07478.1162-.07478zm.6585-1.08428c-.0387 0-.1162 0-.1549.03739-.0775.03739-.1163.07478-.1937.11216-.0775.03739-.0775.07478-.0775.07478 0 .03739.0387.03739.1937.03739h-.0388c.0388-.11217.0775-.18694.155-.18694s.1162 0 .1162-.07478zm-.3874 15.74082v.2991.4861.5234.4487c0 .1121 0 .1121 0 .0374 0-.0748.0388-.2244.0388-.3739 0-.1496.0387-.3365.0387-.4861 0-.1869.0387-.2991.0387-.4113 0-.0374 0-.1121 0-.1495s0-.1122 0-.1496c0-.1869 0-.3365 0-.486 0-.1496 0-.2618.0388-.3365-.155.1495-.1937.3365-.155.5982zm.0388-1.6451v.2243c0 .0748.0387.1496.0774.1869.0388 0 .0388 0 .0388-.0373 0-.0374 0 0 0 .0373.0387 0 .0387-.1121.1162-.3365.0387-.2243.0775-.4112.1549-.486-.0387 0-.0774.0374-.0774.0748l-.0388.0374.1162-.7852c-.0387.0374-.0774.1495-.1549.3365-.0387.1869-.0775.2991-.0775.3365 0-.0374 0-.0374 0-.0748s0-.0748 0-.1495c-.0387.0747-.0387.1869 0 .2991v.2243c0-.1496-.0387-.2243-.0775-.2991-.0774.1122-.0774.2243-.0774.4113zm.1549 2.7668c-.0775.1121-.1162.2243-.1162.2991 0 .1869 0 .1869.0387.0374.0775-.1122.0775-.2244.0775-.3365zm.0388-1.3087c-.0388.0374-.0388.1122-.0775.1496 0 .0748-.0388.1122-.0388.1496v.1495.1496c.0775-.187.1163-.3739.1163-.5983zm.3098-.0747c-.1549.4112-.2324.7477-.2711 1.0095-.0387.2617-.0387.4486-.0387.5234 0 .1122.0387.1122.0774 0 .0388-.0748.0775-.2991.1162-.5982l.155-.7104c0-.0374 0-.0748 0-.1122-.0388-.0374-.0388-.0747-.0388-.1121zm-.1162 2.8041c0-.0373.0388-.1121.0775-.1869 0-.0748-.0387-.1122-.0775-.1122.0775-.4112.0775-.673 0-.7477-.0774-.0748-.0774.1869-.0774.7851.0387.1496.0387.2244.0774.2617zm0-7.4404c0-.8599.1162-1.6825.3487-2.5424.2324-.8226.3486-1.6826.3486-2.5051 0-.0748.0387-.1122.0775-.187.0387-.0373.0387-.0373.1162-.0747 0 .1869-.0388.4486-.0775.7477-.0387.3365-.0775.5983-.1549.7852-.0388.2244-.0775.4487-.1163.673-.0387.2244-.0774.4861-.1549.7478.0387-.0748.0775-.0748.0775 0s0 .0748 0 .0374c0 .0748 0 .1495-.0388.1869-.0387.0374-.0387.0748-.0774.187 0 .1495 0 .2991.0387.3739-.0387.0748-.0775.2243-.1162.4113-.0387.1869-.0387.3738-.0775.5234-.0387.1869-.0387.3365-.0775.4861-.0387.1495-.0387.2243-.0774.2243 0-.0374 0-.0374 0-.0748s0-.0748 0-.1122c-.0388 0-.0388.0374-.0388.0748.0388.0374.0388.0374 0 .0374zm.2325 2.5051c-.0775.1869-.1163.3365-.1163.5234 0 .1496-.0387.2991-.0774.4861l.0387.0374c.0387 0 .0387-.0374.0775-.1496.0387-.0748.0387-.1869.0775-.3365.0387-.1121.0387-.2617.0774-.3739.0388-.1121.0388-.2243.0388-.2617v-.0374c.0387-.0374.0387-.0374.0387-.0748 0-.0373 0-.0373-.0387-.0373 0 .0373 0 .0747-.0388.1121-.0774.0374-.0774.0748-.0774.1122zm0 1.7573c.0774-.0748.1162-.1496.1162-.187.0387-.2243.0387-.3739.0774-.4113.0388-.0373.0388-.1121.0388-.1121 0-.0374 0-.0374 0-.1122 0-.0374.0387-.1495.0387-.3739 0-.0374 0-.0374 0-.0748 0-.0373 0-.0373 0-.0747s0-.1122.0387-.1496c.0388-.0748.0388-.1495.0388-.2617-.0775.1869-.1162.486-.155.8225-.0387.3365-.0774.5609-.1549.6357-.0775.0747-.1162.1495-.0387.1495.0387-.0748.0387 0 0 .1496zm.0387 1.3086c.0387-.1122.0775-.2243.0775-.3365s0-.2243 0-.3365c0-.0374 0-.0374 0-.0374s0 0 0-.0374l.1162-.2617c0-.0748 0-.0748-.0388 0-.0387.0748-.0387.1122-.0387.0748-.0387 0-.0387.1121-.0775.3365-.0387.2243-.0387.3739-.0387.4486-.0387.0374-.0387.1122 0 .1496zm.3486-.9347c-.0387 0-.1162.1495-.1549.486-.0775.3365-.1162.5982-.1162.7852.0387-.0374.0774-.1496.1549-.2991.0775-.1496.1162-.4487.1162-.9347zm-.1162-3.0659c-.0387.1121-.0775.2243-.0387.2991 0 .0747 0 .1869-.0775.3365.0775-.1122.1549-.2618.1937-.4113 0-.0374 0-.0748 0-.1122-.0775-.0374-.0775-.0748-.0775-.1121zm-.1162 2.6172c.1162 0 .1549-.0748.1549-.2243-.0387-.1496-.0387-.2244-.0387-.2992 0-.0373 0-.0373 0-.0373v-.0374c0-.0374 0-.0374 0-.0374v-.0374c-.0387.1122-.0387.2617-.0775.4113 0 .1121-.0387.2243-.0387.2617zm.2712-7.1039c0 .0374 0 .1121-.0388.2991-.0387.1869-.0775.2617-.1162.2617v-.1869c0-.0374 0-.0748.0387-.1122-.0387-.0374-.0387-.0748 0-.187 0-.1121.0388-.1121.1163-.0747zm.0387 8.4125c-.0387-.0374-.0387-.0374-.0775-.0374-.0387 0-.0387.0374-.0387.0748s0 .0748-.0388.0748c.0388.0374.0388.1121.0388.2243v.1496.1495c0 .0748 0 .1122.0387.187zm0-10.9176c0 .1122-.0387.1869-.1162.1869v-.0373c.0387-.0748.0775-.1496.1162-.1496zm.3486 1.7199c-.0387.0374-.0775.1122-.1162.2243-.0387.1122-.0387.2244-.0387.3365.1162-.1869.1549-.3739.1549-.5608zm-.0387.7478c0-.0374 0-.0748.0387-.1122.0388-.0374.0388-.1122.0388-.1495l-.155.2617zm-.0388 8.936c.0388-.0374.1163-.187.1937-.4113.0775-.2243.1162-.3739.1162-.4487 0-.0374-.0387-.0748-.0774-.1495.0387.0747 0 .1495-.0388.1869-.0387.0374-.0774.1122-.1549.2243v.187c0 .1495-.0388.2617-.0388.4113zm.1937-11.5906-.1162.3738c0 .1122 0 .187.0388.2618 0-.0748.0387-.187.1162-.3365.0774-.1496.1162-.2618.1162-.2991l-.0388-.0374-.1162.0374c.0388 0 .0388 0 0 0zm.0388 11.5532c-.0388 0-.0775.1122-.1162.2991-.0388.1869-.0388.2991-.0388.3365 0-.0374.0388-.0374.0775-.0748s.0775-.1869.0775-.4113c.0387-.1121.0387-.1495 0-.1495zm0-11.815c0-.0374 0-.0747.0387-.1495s.0387-.1496.0387-.187c-.0774.1122-.1162.2244-.0774.3365 0 .0374-.0388 0 0 0zm1.4719 11.815c0-.0748 0-.1496 0-.2244 0-.0747 0-.1495 0-.2617 0-.0374 0-.1121 0-.1869s.0775-.1122.155-.1122c.0387-.4113.0775-.7852.1549-1.159.0775-.3739.1163-.7478.1163-1.1591-.0388.0748-.0775.1495-.0388.2243 0 .0748 0 .1122-.0387.1496v-.7104c-.0388.2617-.0775.5234-.155.7104-.0387.2243-.0774.4486-.1549.673 0-.1496 0-.2991 0-.4861 0-.1495 0-.2991 0-.4486-.0387 0-.0387-.0374 0-.1496 0-.0748 0-.1496-.0388-.1869l-.1549 1.3086v.2243.1496c-.0387-.0374-.0387-.0748-.0387-.1496s0-.1496 0-.2243c0-.0748 0-.1496 0-.187 0-.0748 0-.1495-.0388-.1869-.0387.0748-.0774.1495-.0387.2243 0 .0748 0 .1496-.0387.2617-.0388-.0374-.0388-.0747-.0388-.1495 0-.1122 0-.2244.0388-.3365.0387-.1122.0387-.2617.0387-.4113l-.0387-.0748c-.0775 0-.155.0374-.155.1122 0-.0374 0-.1122 0-.187 0-.0747.0388-.1121.1162-.1121v.1121c.0388 0 .0388-.0373.0388-.1121s.0387-.1496.0387-.2617c0-.1122 0-.187 0-.2618 0-.0747 0-.1121 0-.0747-.0387.0373-.0775.1495-.0775.2617 0 .1495-.0387.1869-.0387.1869l-.0775-.0748c0-.0373 0-.0747.0387-.1121.0388-.0374.0388-.0374.0388-.0748v-.0374c0-.1122 0-.2243 0-.3739 0-.1495.0387-.2617.0387-.3739-.0387.0374-.0387.1122-.0775.2244-.0387.1121-.0387.1869-.0387.2243 0-.0374 0-.0374 0-.0374s0 0 0-.0374c0-.1122 0-.2243.0387-.3365.0388-.1122.0388-.2243.0388-.3365-.0775.2991-.1162.6356-.1937.8974-.0775.2991-.1162.5608-.1162.7851v.0374.0748.1122c0 .1121-.0387.1869-.0775.2243l-.0387-.0374h-.0388v-.0374c-.0774.1122-.1162.187-.1162.2243v.1122.187c0 .1121 0 .1495.0388.1495l.0387-.0374c0 .1496 0 .187-.0387.187 0-.0374 0-.0374-.0388-.0374-.0387 0-.0387-.0374-.0387-.0748-.0387.1496-.0775.2617-.1162.2991s-.0775.1496-.1162.3365l.0387-.0374h.0388c.0387 0 .0774.0374.0774.0748.0388 0 .0388-.0374.1162-.1495-.0387.1121-.0774.2243-.1162.3365-.0387.1121-.0774.2243-.1549.2617h.0775c-.0388.1869-.0388.2617 0 .1869.0387-.0748.0774-.1869.1549-.2991.0387-.1122.0775-.1869.1162-.1869 0 0-.0387.1495-.1162.4486.0775.0748.1162.1496.1162.2618v.8225c0 .0374.0387.1122.0775.1496.0387.0748.0775.1121.1162.1869.0387-.0748.1162-.1121.2324-.1495s.1937-.0748.1937-.187c0-.0374 0-.1121.0387-.1869.0388-.0748.0775-.1496.1937-.1496 0-.1495 0-.2243.0387-.2243.0388.0374.0388.0374.0775.0374 0-.0748 0-.1496 0-.2244 0-.0747 0-.1869 0-.2617 0-.1495 0-.2617-.0387-.2991v.4113c0 .1869 0 .2617-.0388.3365zm-.9684-17.27378c0 .14956.0388.18694.1937.14956.0775-.03739.0775-.07478 0-.07478-.0775-.03739-.1549-.03739-.1937-.07478zm.1937.48606c0-.07478-.0387-.11217-.0775-.14956-.0774-.03739-.1162-.03739-.1162-.07478 0 .11217.0388.18695.1937.22434zm.155 15.55382c0-.0373 0-.0373 0-.0373v-.0374c.0387-.0748.0774-.1496.0774-.187.0388 0 .0388.0374.0388.0748s0 .0748-.0388.1122c-.0774 0-.0774.0374-.0774.0747zm.1549-15.89032c0-.03739 0-.07478-.0387-.07478-.0388 0-.0388-.03739-.0775-.03739 0 .07478 0 .14955.0387.14955.0388-.03738.0388-.03738.0775-.03738zm.0387.29911c-.0387.03739-.0774.07478-.0774.14956 0 .03738-.0388.07477-.0388.07477l.155.03739c0-.03739 0-.07478 0-.07478h.0387.0775c.0387 0 .0387 0 .0387-.03738-.1162-.07478-.1549-.11217-.1937-.14956zm.155 15.51651c.0775.0747.1162.1121.1162.1495v.3365c0 .1496 0 .2991-.0387.5235-.0388 0-.0775-.1122-.0775-.3739zm.1937-14.73134c0-.07478-.0388-.11217-.0775-.18695-.0387-.03739-.0387-.03738-.0387-.07477-.0388.03739-.0388.07477-.0388.11216 0 .07478.0775.11217.155.14956zm.0774-.41128c0-.03739-.0387-.11217-.1549-.18695.0387.07478.0775.14956.0775.18695v.18695c.0387 0 .0774 0 .0774-.03739.0388.03739.0388.11216.1163.14955.0387.07478.1162.22434.1936.44867-.0387-.11217-.0774-.22433-.1162-.37389 0-.11217-.0774-.26172-.1937-.37389zm-.0387 14.99302c-.0387 0-.0775.0374-.0775.0748v.0374h-.0387c.0387-.0748.0387-.1496 0-.2244 0-.0747 0-.1869.0775-.2617 0 .0748 0 .1496.0387.2617.0388.1122.0388.187 0 .2244 0-.0374 0-.0748 0-.1122zm.6973-14.32002c-.0388-.11216-.1162-.3365-.2712-.673-.1162-.3365-.2711-.56084-.3874-.673.0388.03738.0775.14955.155.26172.0775.14956.1549.26172.1937.41128.0775.14956.1549.3365.2324.52345zm-.5811-.11216c.0388.03739.0388.03739.0388.07477 0 .03739.0387.07478.0774.11217 0-.14955-.0387-.18694-.1162-.18694zm0 .14955c0 .03739 0 .03739.0388.07478 0 .03739 0 .03739.0387.07478v-.07478c0-.03739 0-.07478-.0775-.07478zm.0388 16.67553c.0774 0 .1549.0374.1549.0748s0 .1122-.0387.1495c-.0388.0748-.0388.1122-.0388.1496-.0774-.0748-.1162-.1496-.1162-.1869 0-.0374 0-.0748 0-.0748.0388-.0374.0388-.0748.0388-.1122zm.0774-16.4138v.07477.03739c0 .03739 0 .03739.0388.03739h.0774v.03739h.0388c0-.03739 0-.07478-.0388-.11217-.0774 0-.0774-.03738-.1162-.07477zm.5036.48605c0-.07477-.0387-.14955-.1549-.18694 0 .11217.0387.18694.1549.18694zm.3099-.11216c0-.03739 0-.07478 0-.11217s-.0387-.07478-.0775-.18695c-.0387.14956 0 .26173.0775.29912z"/><path d="m39.9372 14.6565c.0388.1122.0388.2617.0388.4113v.5234c0 .7478-.0775 1.7573-.2712 2.9164-.1937 1.1964-.3874 2.5051-.6972 3.9259-.2712 1.4207-.5811 2.9537-.8522 4.524-.3099 1.6078-.5811 3.1781-.8522 4.7111-.2712 1.5703-.5036 3.0659-.6973 4.4866-.1162 1.4582-.1937 2.7295-.1937 3.8511 0 .0374 0 .0748-.0387.0748-.0388 0-.0775 0-.0388-.0374.0388-.0374 0-.0374-.0387-.0374s-.0775 0-.0775.0374-.0387.0748-.1162.0748c-.0387-.1122-.0774-.1869-.1162-.1869-.0775 0-.1549.1121-.1937.2991-.0774.1869-.1549.2991-.1936.3365-.2712 0-.3874.0374-.3874.1869 0 .1496 0 .2243.0387.2243h-.1162c-.0387 0-.0387 0-.0387-.0373-.0388 0-.0775.0373-.1162.0747l-.0775-.1121c-.1162 0-.1937.0374-.2324.1495-.0388.1122-.0775.1496-.1162.1496-.0388 0-.0388 0-.0388 0s-.0387 0-.0774 0c-.0388 0-.0775.0374-.1162.1121-.0388.0748-.0775.187-.1163.2992h-.0774c-.0388 0-.0775.0373-.1162.0747-.0388.0374-.0775.1122-.155.1496s-.1937.1122-.3486.1496c-.155.0373-.3486.0747-.6585.0747-.0775 0-.155 0-.2324-.0374-.0775-.0374-.1937-.1121-.2712-.2617-.0775-.1495-.1549-.3739-.2324-.673s-.0775-.7478-.0775-1.3086c0-.1122 0-.2243 0-.3365s0-.187.0387-.2243v-.1122c0-.1496.0388-.3365.1163-.5608 0-.0748 0-.1496 0-.187 0-.0748 0-.1496 0-.1869 0-.0748.0387-.1496.1162-.187 0-.0748 0-.1495 0-.1869 0-.0748 0-.1122 0-.1496 0-.3739.0387-.7104.1936-1.0095.1163-.3365.155-.6356.155-.9721v-.2617c0-.2618.0387-.4487.1549-.5609.0775-.7478.2325-1.5329.4261-2.3555.1937-.8225.3099-1.5703.3099-2.2433h-.0774c-.0388 0-.0388 0-.0388-.0374.0388-.2243.1162-.4113.1937-.5982.0775-.187.1549-.3365.1549-.5235h-.0387c-.0387 0-.0387 0-.0387.0374s-.0388.0748-.1162.0748c.1162-.5982.2711-1.3086.4261-2.0938.1549-.7852.3099-1.6077.4648-2.4677.1549-.8226.3099-1.6451.4648-2.4677.155-.7851.2712-1.4955.3874-2.0938-.2324.2618-.5036.5609-.7747.8226-.2712.2991-.5811.5234-.8522.7478-.3099.2243-.5811.4113-.891.5608-.3099.1496-.6197.2244-.9296.2244-.891 0-1.5495-.2618-1.8981-.8226-.3487-.5608-.5423-1.2338-.5423-2.019 0-.5235.0387-1.0469.1936-1.6451.1163-.5609.2712-1.1217.4649-1.6452.1937-.5234.3874-1.0095.6198-1.4207.2324-.4487.4261-.7852.6585-1.0469.1162-.1496.3099-.2618.5423-.3365.2712-.0748.5036-.1496.7747-.1496.1937 0 .3487.0748.4649.1869.1162.1496.1549.2992.1549.5235 0 .2991-.0775.673-.2711 1.0469-.1937.4113-.3874.8225-.6198 1.346-.2324.5234-.4261 1.0469-.6198 1.6825-.1937.5982-.2712 1.2712-.2712 2.019 0 .2617.0388.4487.1162.6356.0775.187.2325.2618.3874.2618.3099 0 .6585-.2618 1.1234-.8226.4261-.5608.8909-1.2338 1.3557-1.9816.4649-.7478.9297-1.533 1.3558-2.2808.4261-.7477.8135-1.346 1.1234-1.7199.1162-.1495.2711-.2617.4648-.3365.1937-.1121.3874-.1869.581-.2617.1937-.0748.3487-.1495.5036-.1869.155-.0374.2324-.0748.2712-.0748.2711 0 .5035.1122.6972.3739.1937.1495.3487.486.4261.8973zm-7.631 24.5647-.1162.0373c-.0388 0-.0388 0-.0388.0374s0 .0374.0388.0748c.0387.0374.0387.0748.0387.0748zm0-.0374c.0387 0 .0387-.0374 0 0 0-.0374 0-.0374 0-.0748v-.0748c0-.1495 0-.3365.0387-.5234.0387-.187.0387-.3739.1162-.5609l-.1549.0374v.2617.2992.1495c-.0388.0374-.0388.1122-.0388.187-.0387 0 0 .1121.0388.2991zm.1549-1.3086c-.0387-.0374-.0387-.0374-.0387-.0748v-.1496c-.0388.0374-.0388.0374-.0775.0374s-.0387.0374-.0387.0748c0-.0374 0 0 0 .0374s.0387.0748.0774.0748zm-.0387-.2244c.0387-.0748.0774-.1869.0774-.2991 0-.1496 0-.2617 0-.3739v-.0748c.0388-.1121.0775-.2243.155-.2991.0387-.0748.0775-.1495.0775-.2617v-.0748c-.0775 0-.1162.0374-.1937.187-.0388.1121-.0775.2243-.1162.3739-.0388.1495-.0775.2991-.0775.4486v.3365c0 .0374 0 .0374.0775.0374zm.1549 2.2434c.0388-.0374.0775-.0748.0775-.1496v-.1869c0-.0748 0-.1122.0387-.1496-.0774.0374-.1162.0374-.1162.0748s-.0387.0374-.0387.0374c0-.1122 0-.187 0-.2618 0-.0747-.0388-.1495-.0775-.2243-.0387.0748-.0387.187-.0387.2991v.4861c.0387.0374.0774.0748.1162.0748.0387 0 .0387-.0374.0387 0zm0-1.4956c0-.0374 0-.1122.0388-.2243.0387-.1122.0387-.187.0387-.2618l-.0387-.0747c0-.0374 0-.0748.0387-.0748s.0387-.0374.0387-.0748-.0387-.0748-.0774-.1122c0-.0374 0-.0747.0387-.1121s.0387-.0748.0387-.1122 0-.0374-.0387-.0748c-.0387.1122-.0387.2244-.0775.3365-.0387.1122-.0387.2617-.0387.4113.0387.0374.0387.0374.0387.1122s0 .1495-.0387.2243c-.0388.0374-.0388.1122-.0388.1496v.0374l.0775-.0374v-.0748zm-.0387 1.6825c0 .0374 0 .0748.0387.1122l.0775.0748c.0387 0 .0387-.0001.0387-.0374 0-.0374 0-.0748 0-.0374 0 0 0 0-.0387-.0748h-.1162zm.1937.5982c0-.0374 0-.0747 0-.1495 0-.0374 0-.0748 0-.1496-.0388.0374-.0775.0748-.0775.1496 0 .0374-.0387.0748-.0775.1121.0388 0 .0775 0 .0775.0374s.0387.0374.0775.0374zm-.155-3.4024c.0775 0 .1162-.0374.1162-.0748v-.0747c-.0774.0374-.1162.0747-.1162.1495zm.155-1.832c-.0775.1495-.1162.3365-.1162.6356v.1495c.0387 0 .0774-.0747.0774-.1869s.0388-.2617.0388-.3739c.0387-.1496.0387-.2617.0774-.3739.0388-.1122.0775-.1869.155-.1869-.0388-.1496-.0775-.2244-.1162-.2244-.0388 0-.0388 0 0 0-.1162 0-.155.1496-.155.4487v.1122zm-.0388 1.159c0 .1122 0 .187.0388.2617.0387 0 .0774-.0373.0774-.1495v-.1496h-.1162zm.0775 1.3086c.0387-.0374.0775-.1121.0775-.1869 0-.0374 0-.0748 0-.1122s0-.0374 0-.0748v.0374c0 .0374 0 .0748-.0388.1122-.0387.0374-.0387.0748-.0387.1122-.0387.1121-.0387.1121 0 .1121zm.8522-5.4588c.0387-.1121.0387-.2243.0775-.3365.0387-.1121.0387-.1869.0387-.2991v-.1122c-.0775.0374-.1162.1122-.1937.2618l-.0774.2617c0 .0748 0 .1122.0387.1869-.0775.187-.155.3739-.1937.5235.0387.0374.0387.1122.0387.1869 0 .0748-.0387.1496-.1162.1496v-.1122c0-.1495 0-.2617.0388-.4113.0387-.1495.0387-.2617.0387-.4112v-.1496c-.0387.0748-.0775.187-.1162.2617-.0387.0748-.0387.187-.0387.2991v.0748c-.0388.0374-.0775.1496-.1162.2991-.0388.1496-.0775.2991-.1163.4861-.0387.1869-.0774.3365-.0774.5234-.0388.1496-.0388.2992-.0388.3739 0 .0748 0 .1496.0388.187 0-.0374 0-.0374.0387-.0374s.0387-.0374.0387-.0748v-.0748c0-.0374.0388-.0374.0775-.0747v.0747.1122.0748h.0775c.0775-.0374.1162-.0748.1549-.187l.0388.1122c.0387 0 .0387-.0374.0387-.0748s0-.1121-.0387-.1495c-.0388-.0748-.0388-.1122-.0388-.1496h.0388c-.0388-.0374-.0388-.0748-.0388-.1122 0-.0747 0-.1495.0388-.1869.0387-.0748.0387-.1496.0387-.187 0-.0373 0-.0747 0-.0747s0-.0374 0-.0748c-.0387.1122-.0775.2243-.0775.2991s-.0387.1496-.0774.1869c-.0388 0-.0388 0-.0388-.0373v-.1496c.0388-.0374.0775-.1496.0388-.2617 0-.1496.0387-.2244.1162-.2617v.1495c.0774-.0374.1162-.1122.1162-.1869 0-.0748 0-.1496.0387-.187l.0775-.0374c-.0387-.0374-.0387-.0374-.0387-.0747v-.0374c.0387-.0374.0774-.1122.0774-.187s.0388-.1495.0775-.2243c-.0387-.0374-.0387-.0374-.0387-.0748v-.0748zm-.4648 2.6173c-.0775.0374-.1162.0747-.1162.1121s0 .0374.0387.0374h.0387c-.0387.0374-.0387.1122-.0387.187 0 .0747-.0387.1495-.1162.2243v-.0374l-.0388-.0748c-.0774.187-.1162.4113-.1162.673v.1496c.0388-.0374.0775-.1496.0775-.2617 0-.1496.0387-.2244.1162-.2617-.0387-.0374-.0387-.0374-.0387-.0748s0-.0374 0-.0374v-.0374c.0775-.0374.1162-.1122.1549-.187-.0387.0748-.0387.187-.0387.3366 0 .0373 0 .0747.0387.1121.0775-.0748.155-.1869.155-.4113v-.1495c.0387-.0374.0774-.0748.0774-.1122v-.0748s-.0387-.0374-.0387-.0747c0-.0374 0-.0748-.0387-.1122l-.1162.3365c0-.0374-.0388-.0748-.0775-.1496v-.0374c0-.0373 0-.0373 0-.0373.0775.0373.0775 0 .0775-.0374zm.0387 3.0285c.0387-.1122.0387-.2243.0775-.3365.0387-.1122.0387-.2244.0387-.3365 0-.1496-.0775-.2617-.1937-.3365l-.0387.0374c-.0387 0-.0387 0 0 0-.0387 0-.0775.0374-.0775.1121v.2244c0 .0747.0388.2243.0775.4486-.0775.2244-.155.4113-.155.5609v.1121.1122c.0388-.1122.0775-.1869.1163-.2243.0387-.0374.0387-.1122.0387-.187 0-.0374 0-.0374 0-.0374s0 0 0-.0373h.0387.0388c0-.0748 0-.1122.0387-.1122zm.0387-.2617c-.0387.0373-.0774.0747-.1162.0747-.0387 0-.0774-.0373-.0774-.1495 0-.1496.0387-.2617.1162-.3365v.1869c.0387.0374.0387.1122.0774.2244zm-.0387.5234c.0387 0 .0775-.0374.0775-.0748s0-.0374 0-.0374 0-.0374 0-.0747l-.1162.0374zm-.0387 1.8695c.0387-.0374.0774-.1122.0774-.1496 0-.0748 0-.1122 0-.1495l-.1162.0373v.0748.1122s0 .0374.0388.0748zm0-4.7111c0-.0747 0-.1121.0387-.1869v.0374.0374c-.0387.0374-.0387.0374-.0387.1121zm.1549-.5982c.0387-.0748.0387-.1495.0775-.1869.0387-.0748.0387-.1496.0387-.187l-.1162.0748v.1496.1121zm.0387-2.8416c.0775-.1121.1163-.2243.1163-.2991s0-.1495.0387-.2617c-.0387.0748-.0775.1496-.1162.1869-.0388.0748-.0388.1496-.0388.2618zm.0775 3.6268c0-.0374 0-.0748.0388-.1122.0387-.0374.0387-.0748.0387-.1122 0-.0373-.0387-.0747-.0775-.1495zm.155-4.4493c0-.1496 0-.2617.0387-.4113s.0387-.2617.0387-.4113c-.0387.0374-.0387.1122-.0774.187-.0388.0747-.0388.1495-.0388.1869 0 .0748 0 .1122.0388.1496-.0388 0-.0775.0374-.0775.1495 0 .0374 0 .1122.0775.1496zm.2324.1121c.0387-.3738.1162-.7103.2324-1.0842-.1549.0747-.2324.1869-.2712.3739-.0387.1869-.0774.3738-.0774.5234v.0748l-.0775.0374c.0387.0374.0387.0747.0387.1121-.0387.0374 0 .0374.0388.0374.0387 0 .0774 0 .0387-.0374 0-.0374.0387-.0374.0775-.0374zm.1162-1.9068c0-.0374 0-.0748 0-.0748s0-.0374 0-.0748c-.0387 0-.0775.0374-.1162.0748-.0388.0374-.0775.0748-.0775.1496zm.1937-.8973c.0387-.0748.1162-.1496.1549-.2618.0388-.1121.0775-.2243.0775-.3365v-.0747c-.0775-.0374-.155.0373-.1937.2243 0 .2243-.0387.3739-.0387.4487z"/><path d="m54.1922 4.78575c-.7747-.11217-1.5107 0-2.2854.29911-.736.29912-1.3945.74779-1.9756 1.27123-.581.52345-1.0459 1.12168-1.3945 1.79468s-.5036 1.30862-.4648 1.90683c.0387.86.2711 1.7947.6585 2.7668s.7747 1.9442 1.2008 2.9537c.4261 1.0096.7748 2.0191 1.0846 3.0286.3099 1.0095.4262 1.9816.3487 2.9163-.0388.7104-.2324 1.4208-.5811 2.0564-.3486.673-.8134 1.2339-1.3557 1.7573-.5424.5235-1.1621.8973-1.8207 1.1965-.6585.2991-1.317.4486-2.0142.4486-.0775 0-.2325 0-.4649-.0374-.1937-.0374-.4261-.0747-.6972-.1121-.2325-.0374-.4649-.1122-.6973-.187s-.4261-.1869-.5423-.2991c-.155-.0748-.3486-.2617-.6198-.5234-.2324-.2618-.4648-.5235-.6972-.8226-.2325-.2991-.4261-.5982-.5811-.8973-.1549-.2991-.2324-.5609-.2324-.7104.0387-.0748.0775-.1122.0775-.1496s.0387-.0374.0774-.0374c.1162.0374.1937.1122.2325.187.0387.0747.0774.1121.1549.1121.0387 0 .0775 0 .1549-.0374.155.1122.3099.2244.4261.2992.1163.0747.2712.1869.4261.2617.155.0748.3487.1495.5424.1869.1936.0374.4648.0748.8134.0748.4261 0 .8135-.0748 1.1234-.2617.3486-.187.6198-.4113.8134-.7104.1937-.2991.3487-.673.3874-1.0469.0387-.4113 0-.8226-.1549-1.2712-.1937-.6356-.5036-1.3087-.8522-2.019-.3487-.7104-.736-1.4956-1.0847-2.2808-.3486-.7852-.6972-1.6077-.9684-2.4303-.3099-.8225-.4648-1.6451-.5423-2.4677-.1162-1.4207.0775-2.72936.6198-3.92581s1.2783-2.28073 2.2855-3.17807c.9684-.89734 2.1305-1.60773 3.4088-2.13118 1.317-.52345 2.634-.78517 4.0285-.78517 1.2009 0 2.0143.59822 2.5566 1.79467.1163.26173.155.48606.1163.7104-.0388.18694-.155.37389-.2712.48606-.1549.11216-.3099.14955-.5423.14955s-.4648-.14955-.6973-.3365z"/><path d="m56.7101 24.6768c-.0387.0374-.0387.0374-.0775.0748-.0387.0374-.0387.0748-.0387.1495v.2618c0 .0747.0387.1495.0387.2617-.1162-.0748-.1937-.1496-.1937-.2244 0-.0747-.0774-.1121-.1549-.1121l.0775.2243c0 .0374 0 .0374-.0388 0-.0387-.0374-.0774-.0374-.0774-.1122v.1122.1122c-.0388 0-.0775-.0374-.1162-.1122-.0388-.0748-.0775-.1495-.1163-.2243-.0387-.0748-.0774-.1496-.1162-.2244-.0387-.0747-.0774-.1121-.0774-.1495v.4113c0 .1121.0387.2243.0774.3739-.0387 0-.0774-.0374-.1162-.1496-.0387-.1122-.0774-.2243-.0774-.3365-.0388-.1122-.0388-.2243-.0388-.3365s-.0387-.1869-.0387-.1869c-.0388-.0374-.0388 0-.0388.0747 0 .0748-.0387.1496-.0387.2618v.3738c-.0387 0-.0775-.0373-.1162-.1495s-.0387-.2243-.0775-.3365c-.0387-.1496-.0387-.2991-.0774-.5235-.0775.0748-.1163.2618-.1163.5235-.1162-.0374-.1936-.1496-.1936-.3365 0-.187-.0388-.2617-.1162-.2617-.0388 0-.0775.1121-.0775.2991 0 .1869 0 .2991-.0388.2991-.0387 0-.0774-.1496-.1549-.4113-.0387-.2617-.0775-.5982-.1162-1.0095-.0387-.3739-.0775-.7478-.0775-1.1217s0-.673 0-.8599c0-.1122 0-.2244 0-.3739 0-.1496 0-.2617 0-.3739.0775-1.1591.1937-2.2433.2324-3.2529.0775-1.0468.155-2.0564.2325-3.0659.0774-1.0095.1936-2.019.2711-3.0285s.1937-2.09376.3486-3.17805h-.2324c-.2324 0-.5036 0-.7747-.03739-.2712-.03739-.5423-.11216-.7747-.18694-.2325-.07478-.4261-.18695-.5811-.3365-.1549-.11217-.2324-.29912-.2324-.48606 0-.07478.1162-.11217.3486-.14956s.5036-.07478.8135-.07478c.3099-.03739.6198-.03739.9297-.03739h.736c.0774-.22433.1162-.52344.1936-.93472.0388-.41128.1162-.82256.1937-1.27123s.155-.89734.2324-1.34601c.0775-.44867.155-.82256.2712-1.12167.1162-.37389.3099-.59823.6198-.7104.3099-.11216.6198-.18694.9297-.18694.1549 0 .3486 0 .581.03739s.4648.07477.6972.11216c.2325.07478.4261.14956.6198.26173.1937.11216.2712.26172.2712.41128 0 .11217-.0387.22433-.0775.29911.0388.14956.0775.3365.0775.48606v.56084c0 .74778-.0388 1.42078-.1162 1.94423-.0775.52345-.155 1.04689-.1937 1.53295.5423 0 1.1621.03739 1.7431.11217.6198.07478 1.1234.26172 1.472.52345-.0775 0-.1937.07477-.3099.14955-.1162.11217-.2324.18695-.3486.18695.0387 0 .0387 0 .0775.03739.0387.03739.0387.03739.0387.03739s0 .03739.0387.03739c-.1549 0-.3486 0-.6197 0-.2712 0-.5811.03738-.8522.03738-.3099.03739-.5811.03739-.8522.03739-.2712 0-.4649.03739-.5424.03739-.1936 1.60773-.3486 3.10334-.5423 4.52404-.1936 1.4208-.3486 2.8042-.5423 4.1502s-.3873 2.692-.581 4.0754-.3874 2.8042-.6198 4.2998c-.0387.0748-.0387.1122-.0775.1869-.0387.0748-.0387.1122-.0387.1496-.0387.0374-.0387-.0374-.0775-.1496-.0387-.1121-.0775-.2617-.1549-.4112v.3365.2991c-.0775-.0374-.1937-.1122-.3099-.2618-.1162-.1495-.1937-.3365-.1937-.5234z"/><path d="m71.5074 13.9836-.4261.1495.1937.0748-.0387.0748c-.3874-.0374-.736.0374-1.0847.1869-.3486.1496-.6585.2618-.8909.3365.0387-.1495.0387-.1869 0-.0374-.0775.1122-.1549.187-.3099.187 0 .0374-.0775.1122-.2324.2243-.155.1122-.2324.1122-.1937 0-.1162.1122-.2324.187-.3874.2617-.1549.0748-.2324.1122-.3098.1496-.0388.0374-.0775.0748-.0775.1122s-.0388.0374-.1162.0374c.0387 0 .0387 0 0 0 0 0-.0388 0-.0775 0-.2712.1869-.581.2991-.8909.3365-.3099.0747-.6198.0747-.8522.0747v-.0747c0-.0374 0-.0374-.0388-.0374l-.1162.0374c.1162.8225.1937 1.5703.2324 2.2059.0388.6356-.0387 1.346-.2711 2.1312 0 .0374 0 .1122-.0388.2243-.0387.1122-.0387.2618-.0774.4113-.0388.1496-.0775.2991-.1162.4487-.0388.1495-.1162.2617-.1937.3365-.1162.1869-.1937.4113-.2324.5608-.0388.187-.1162.3365-.2712.5235-.1162.1869-.3099.3365-.5423.5234-.2324.187-.6198.4113-1.1234.6356-.1162.0374-.2711.0748-.4261.0748-.1549 0-.3486 0-.5423-.0374-.2324-.0374-.5035-.1495-.8522-.3365-.3486-.1869-.581-.4486-.6972-.7852-.3099-.7103-.5036-1.4581-.5036-2.2433 0-.8226.0387-1.533.1937-2.206.1549-.673.3873-1.4207.6972-2.2059.3487-.7852.736-1.533 1.2396-2.206s1.0846-1.2338 1.7431-1.6451c.6586-.4113 1.3946-.5982 2.208-.5234.0775 0 .2712 0 .5423.0373.2712.0374.5423.0748.7748.1496.2324.0748.4261.187.581.2991.1549.1122.1162.2244-.0387.3739-.1937.0374-.3487.0374-.4261 0-.0775-.0374-.2325-.0374-.3487-.0374-1.0846.4861-1.9755 1.3086-2.6728 2.5051-.736 1.1964-1.2395 2.5425-1.5882 4.038-.0774.4861-.1937.9721-.2711 1.533-.0775.5608-.0388 1.1216.1162 1.6825 1.4332-1.9816 2.1692-4.1128 2.2467-6.4309v-.2618c-.0387-.0374 0-.0748.0387-.1495.0388-.0374.0775-.0748.0775-.1496-.0387-.0374-.0775-.0748-.1162-.1122-.0387-.0373-.0775-.0747-.0387-.1121-.0388-.1122 0-.187.1549-.187.155-.0374.2712 0 .3486.1122.3874-.0748.7748-.1869 1.1621-.2991.3874-.1496.736-.2991 1.1621-.4861.3874-.1495.736-.2991 1.0072-.3739.2711-.1121.5423-.1869.8134-.2243.2712-.0374.5423-.0748.8522-.1122.2712-.0374.6585-.0747 1.0846-.1121v.0374l-.7747.1869zm-1.8981.2617c-.0774 0-.1162.0374-.1937.0748-.0387.0374-.0387.0374-.0774.0374.0387-.0374.0774-.0374.1549 0 .1162 0 .155-.0374.1162-.1122zm.0388.1869c-.0388.0374-.0388.0374-.0775.0374-.0387.0374-.0775.0748-.0387.0748.1162-.0374.1549-.0748.1162-.1122zm.1162 0c.0774-.0373.0774-.0747.0774-.1495l-.0387.0374c-.0387.0748-.0775.1121-.0387.1121zm.1549-.0373c.3874-.1122.736-.1496 1.0072-.1496-.155-.0374-.3099-.0374-.5036 0s-.3874.0748-.5423.0748zm.5811-.4113c.0387 0 .0387 0 .0774-.0374.0388-.0374 0-.0374-.0774-.0748-.0388.0374-.0775.0748-.1162.0374-.0388 0-.0775 0-.1163 0l-.0387.0748h-.0387c.0774.0748.1937.0748.3099 0z"/><path d="m77.8602 11.4785c-.1162.0747-.2324.1495-.3486.2243s-.2325.1496-.3099.2617c-.155.0374-.2324.1122-.2712.187-.0387.0747-.1549.1869-.3099.2243.0388.0374.0388.0748 0 .1122-.0774.0374-.1162.1121-.1937.1495-.0774.0748-.1549.1122-.2324.187-.0774.0747-.1162.1121-.1549.1869-.0775.0374-.155.0748-.2712.1496-.1162.0374-.1937.1121-.2324.2243-.0775.0374-.1162.1122-.1549.187-.0388.0747-.0775.1495-.1162.1869-1.8207 1.8321-2.9053 3.8885-3.2539 6.244-.1937 1.3834-.3874 2.6546-.5423 3.8884-.0388.0374-.0775 0-.0775-.1121 0-.1122-.0387-.1496-.0775-.1122-.0387.0748-.0774.1496-.1549.2243-.0387.0748-.0775.1122-.155.1496 0 .0374-.0387.0374-.0774 0-.0388-.0374-.0775-.0374-.155 0-.0387.0374-.0387.0374-.0387.0748-.0387.0374-.0387.0374-.0775.0374 0-.0748 0-.1122-.0387-.0748-.0388 0-.0388 0-.0388-.0374l-.0774.0374v.0374c-.0388-.0374-.0388-.0748 0-.0748 0 0 0 0 0-.0374-.0388 0-.0388 0-.0388 0s0 0-.0387 0h-.0387v-.1869c-.0388.0374-.0775.1121-.0775.1869s-.0387.1122-.0775.1122l-.0775.0748v-.0748c.0388 0-.0387.0748-.1936.1869v-.1495c-.0775.0374-.1162.0747-.1162.1495 0 .0374 0 .0748-.0388.0748-.0387.0374-.0775.0374-.1162.0748s-.0775.0374-.1162.0748h-.1162c-.0387.0373-.0775.0747-.1162.1121-.0388.0374-.0388.0748-.0775.1122-.0775.0374-.1549.0374-.2324.0748s-.155.0747-.1937.1121c-.0387-.0747-.1549-.1121-.2712-.1121l-.1549-.1496c-.0387-.0748-.0775-.1495-.1162-.1495s-.0387-.0374-.0775-.1122c0-.0374-.0774-.0748-.1937-.187l-.0774-.1869c.0387-1.0095.1162-2.0938.1549-3.2155.0775-1.159.1937-2.2807.3099-3.4024.155-1.1216.3099-2.2059.5423-3.2154s.5423-1.8695.891-2.5799c.0774-.1495.2324-.3739.426-.673.2325-.2991.4262-.4487.5811-.4487.1162-.0747.2712-.1869.4261-.2991.1549-.1121.3486-.1495.4648-.1495.3099-.0748.5811-.0748.7748-.0374.1936.0374.3486.1122.4648.2243.1162.1122.1937.2617.1937.4113.0387.1496.0387.2991.0387.4861 0 .1121 0 .2617-.0387.486-.0388.187-.0775.4113-.1162.6356-.0388.2244-.0775.4487-.155.6356-.0387.187-.0774.3365-.1549.4113-.0388.2618-.0775.4487-.1162.6356-.0388.1496-.0775.3739-.0775.5983.2324-.2618.5423-.5983.9297-1.0095.3873-.4113.8134-.7852 1.2783-1.1217.4648-.3365.9297-.6356 1.4332-.8226.7748-.2617 1.2396-.2617 1.6657-.1121z"/><path d="m88.2028 14.4696c0 .0374 0 .1122.0387.1495.0388.0748.0775.1122.155.1122-.0775.0748-.1162.1122-.1162.1496s0 .0374.0387.0748c.0387.0373.0387.0747.0387.1121s0 .0748-.0387.1122c0 .0374 0 .0374 0 0 0 .0748 0 .1495-.0387.2617-.0388.1122-.0775.2243-.1937.2991 0-.0374 0-.0374 0-.1121 0-.0374.0387-.0748.0775-.1496h-.0388c-.0387 0-.0774.0748-.1549.1869-.0388.1496-.2324.5235-.5423 1.1217.1162-.0748.2324-.1869.3099-.3365.0774-.1869.1936-.3365.2711-.4487v.0748c0 .0374 0 .0748-.0387.1122-.0388.0374-.0388.0748-.0388.1122.1163-.1122.1937-.2244.2325-.3739.0387-.1496.1162-.3365.2324-.5983.0387.0374.0387.0374.0387.0748v.0374.1496c.0388 0 .0388.0374.0388.0747 0 .0748-.0388.1122-.0775.187-.0775.0374-.0775.0748-.0775.1495 0 .0374.0387.0748.0775.1122-.0775.2617-.1937.5235-.3874.86s-.4261.673-.6972 1.0095c-.2712.3365-.5036.673-.7748 1.0095-.2711.3365-.5035.6356-.6972.8225-.0388.0374-.0388.0374-.0775.0374s0-.0748.0775-.2243c.0775-.1496.1549-.2617.2324-.2991v.0748c.2324-.2992.5036-.6357.8135-1.0843.3099-.4113.581-.8226.8134-1.1591h-.0387v-.0748l.1549-.1495c.0388-.0374.0775-.0748.1162-.1496 0 .0374 0 .0374-.0387.0748.0775-.0748.1162-.1496.0775-.187 0-.0747 0-.1121.0387-.1495v-.1122c-.0387 0-.1162.0748-.1937.2244-.0774.1495-.2324.3739-.4648.673h.0775c-.0388.0747-.1162.1869-.2324.2991-.1163.1121-.2712.3365-.4649.673-.0387 0-.0387 0-.0387-.0374-.0388 0-.0388-.0374-.0388-.0748.0388 0 0 .0748-.1162.187-.0774.1495-.1549.2243-.1936.2991l-.0388-.0748c-.0387.0374-.0775.1122-.1162.2617-.0775.1122-.1162.2244-.1549.2617h-.0388c-.0774.1496-.1549.2244-.2324.2618l.0387.0747c0 .0748-.0387.1496-.0774.2244-.0775.0748-.1162.1869-.1937.2991s-.155.2243-.2324.3365c-.3099.3739-.6973.7478-1.1234 1.1217-.4261.4112-.8522.7477-1.3558 1.0469-.4648.2991-.9684.5608-1.4332.7851-.5036.2244-.9297.3365-1.3558.3365h-.0387c-.0388 0-.0388 0-.0388-.0374.0388 0 .0388 0 .0388-.0373v-.0374c-.155 0-.2712 0-.3874.0374-.1162.0373-.2324.0373-.3486.0373-.0387 0-.1162 0-.1937-.0373-.0775-.0374-.1549-.0374-.1937-.0374-.0387 0-.0387 0 0 .0374 0 .0373 0 .0373-.0387.0373-.0387-.0373-.0775-.0747-.1937-.0747h-.1549c-.1162-.0374-.2325-.0748-.3487-.1122s-.2324-.0374-.3486-.1122c.155.1496.3099.2244.5423.2618.2324.0373.4261.0373.6198.0373h.3874c-.0388.0374-.0775.0748-.1162.0374-.0388-.0374-.0775 0-.1163.0374h.1937v.0374c-.1937 0-.4261 0-.6972-.0374-.2712-.0374-.5036-.0748-.736-.1495.0387.0374.1162.0747.1549.0747.0388 0 .1162.0374.1162.0748-.1162 0-.1936 0-.2711-.0374s-.155-.0747-.1937-.1121h-.0387l.0387.0747h-.0387c-.0388 0-.0388 0-.0388-.0373l-.0387-.0374c-.155.0374-.2712 0-.3486-.0748-.1162-.0748-.2325-.1122-.3487-.1496-.6198-.5234-1.0458-1.1216-1.317-1.7946s-.4261-1.3461-.4261-2.0564c0-.7104.1549-1.4956.5036-2.3182.3486-.8225.7747-1.5703 1.3557-2.2807.5811-.7104 1.2396-1.3086 2.0143-1.7573.7748-.4861 1.5882-.7104 2.4404-.7104.155 0 .2712.0374.3874.0748.0775.0374.1937.1122.2324.1495.0775.0748.155.1122.2324.187.0775.0748.1937.1495.3099.1869-.0387 0-.0387 0-.0387-.0373v-.0748l.0387.0748h.0388c.0387 0 .0387 0 .0387-.0374s0-.0374 0-.0374v-.0374l.1162.1495c.0387 0 .0387 0 .0387-.0373v-.0748c.0388.1121.0775.2243.0775.3365 0 .1121.0387.2243.0775.3365.0387.1495.1162.2991.2711.486.1162.187.1937.5235.1937.9722 0 .2617-.0774.5982-.1549.9721-.1162.3739-.3099.7477-.6198 1.0843-.3099.3365-.6973.6356-1.2008.8599-.5423.2617-1.2009.3739-2.0143.3739-.2712 0-.5036 0-.736-.0374s-.4261-.0374-.6198-.1122c-.1549.4113-.1937.7478-.1937 1.0843 0 .6356.1937 1.1591.6198 1.4956s.9684.5234 1.6269.5234c.736 0 1.3945-.1869 2.0143-.5234.6198-.3739 1.2396-.8226 1.8594-1.4208.6197-.5982 1.2395-1.2712 1.8593-2.0564s1.3171-1.5703 2.0918-2.4303c.0387 0 .0775-.0374.1549-.0748-.0387-.1869.0388-.2243.0775-.2243zm-11.1561 8.8986c-.0387-.0374-.0387-.0374-.0775-.0374-.0387 0-.0387-.0374-.0387-.0748.0387.0374.0775.0374.0775.0748 0-.0374 0 0 .0387.0374zm2.8665-8.9734c-.3099.2991-.581.673-.8522 1.0469-.2711.4113-.4648.7852-.581 1.1591.1549-.0748.3486-.2244.6972-.4113.3099-.187.6585-.3739 1.0072-.6356.3486-.2617.6585-.5235.9684-.8226s.5035-.6356.581-.9721c-.0775-.0374-.1937-.0374-.3486-.0374-.2712 0-.5423.0748-.8135.187-.2711.1869-.4648.3365-.6585.486zm.7747-1.7573c-.3486.0748-.6585.2244-.8909.4861.2324-.1496.5036-.2991.7747-.3739.2712-.1122.5811-.1496.8522-.1496-.0387-.0374-.0774-.0374-.1549-.0374-.0388.0374-.1162.0374-.155.0374-.0387-.0374-.0774-.0374-.1162-.0374-.0387 0-.1162 0-.1937.0374-.0387-.0374-.1162 0-.1162.0374zm.5423 0c-.0774 0-.1936 0-.2711.0374l-.0387-.0374v-.0374c-.0388.0374-.155.0748-.3487.1122-.1937.0748-.3099.1122-.4261.2243.2324-.0374.4261-.1121.5811-.1869h.1162.1162c.0387 0 .0775 0 .1549-.0374.0388.0374.0775 0 .1162-.0748zm-.1162-.2617c0 .0374-.0387.0748-.1549.0374-.0775 0-.1162 0-.1162.0374l.581-.1122c-.1162-.0374-.1937-.0374-.2711-.0374zm1.7432 1.1217c0 .1121.0387.2243.0775.2991.0387.0748.0774.1495.1549.2617-.0387-.0748-.0775-.1869-.0775-.2617.0388.0374.0775.1122.1162.1869.0388.0748.0388.1496.1162.187 0-.0748-.0387-.187-.1162-.3365-.1162-.187-.1937-.2991-.2711-.3365zm3.9511 4.1128c.0387-.0748.0387-.1496.1162-.2244.0387-.0373.0775-.1121.1549-.1869-.1162.0374-.1936.1496-.2324.2617-.0387.1496-.1162.2617-.1937.3739v.0748c0-.0374-.0387.0374-.1549.1495-.0775.1496-.1549.2244-.1937.2992.0775-.1122.155-.2618.2324-.4113.0775-.1496.1162-.2991.155-.4487-.0388.0748-.0775.1122-.1162.1122v-.1122c-.0775.1122-.155.2617-.1937.4113-.0387.1495-.155.3365-.2712.5234l-.0387-.0747c-.0387.1121-.0775.1869-.1549.2243-.0388.0374-.0775.1122-.0775.1869v.0374l.0775-.0748c0-.0373 0-.0373.0387-.0373h.0775c-.0388.0373-.0775.0374-.0775.0747 0 .0374-.0387.0748-.0775.1122.0775-.0374.155-.1122.1937-.1869.0387-.0748.0775-.1496.1549-.187.0388.0374.0388.0374.0775.0374 0-.0374.0388-.1122.0775-.1496.0387-.0373.0775-.1121.1162-.1869s.0775-.1496.1549-.2243c-.0387 0 0 0 0 0 .0388 0 .0388.0374 0 .0747.0388-.0373.0388-.0747.0775-.1121.0388-.0374.0388-.0374.0775-.1122v-.0748c0-.0374 0-.0747 0-.1121s0-.0374 0-.1122zm.5423-1.0095s-.0387-.0374 0 0c-.0387-.0748.0387-.187.1937-.3739.1549-.187.2324-.3365.3099-.4113-.1162.1122-.3099.2991-.5423.5608-.2325.2618-.3487.5235-.3487.7478v.0748c.0388-.0374.0388-.0748.0775-.1496.0387-.0747.0775-.1121.1162-.1121.0388 0 .0388.0374.0388.1121.0387-.0747.0774-.1495.0774-.2243s.0388-.1495.0775-.2243z"/><path d="m89.21 20.0032c.2711-.0374.5035 0 .6585.1121.1549.1122.2711.2991.3486.4861.0775.1869.1162.4113.1162.673 0 .2243-.0387.4487-.0775.673-.0387.1495-.1162.2991-.2324.486-.1162.187-.2324.3366-.3486.4487-.1549.0748-.3486.1122-.581.1496-.2325.0374-.4649.0374-.6973 0s-.4648-.1122-.6585-.187-.3874-.2243-.5036-.4113c-.1937-.0747-.3486-.2243-.4261-.4112-.0775-.187-.0775-.3739-.0387-.5609.0387-.1869.1162-.4112.1936-.5982.1162-.1869.2325-.3365.3487-.4861.2711-.1869.581-.2617.8909-.2991s.6198-.0747 1.0072-.0747z"/></g></svg>